<?xml version="1.0" encoding="UTF-8"?>
<svg width="72px" height="72px" viewBox="0 0 72 72" version="1.1" xmlns="http://www.w3.org/2000/svg" xmlns:xlink="http://www.w3.org/1999/xlink">
    <!-- Generator: Sketch 47.1 (45422) - http://www.bohemiancoding.com/sketch -->
    <title>icon-blowingsand</title>
    <desc>Created with Sketch.</desc>
    <defs></defs>
    <g id="__wesketch_export" stroke="none" stroke-width="1" fill="none" fill-rule="evenodd">
        <g id="icon-blowingsand">
            <g>
                <rect id="72px" x="0" y="0" width="72" height="72"></rect>
                <path d="M27.4993748,22 C28.8809702,22 30,23.12 30,24.5 C30,25.88125 28.8809702,27 27.4993748,27 C26.1190298,27 25,25.88125 25,24.5 C25,23.12 26.1202801,22 27.4993748,22 Z M36.4993748,28 C37.8809702,28 39,29.12 39,30.5 C39,31.88125 37.8809702,33 36.4993748,33 C35.1190298,33 34,31.88125 34,30.5 C34,29.12 35.1202801,28 36.4993748,28 Z M36.4993748,39 C37.8809702,39 39,40.12 39,41.5 C39,42.88125 37.8809702,44 36.4993748,44 C35.1190298,44 34,42.88125 34,41.5 C34,40.12 35.1202801,39 36.4993748,39 Z M27.4993748,33 C28.8809702,33 30,34.12 30,35.5 C30,36.88125 28.8809702,38 27.4993748,38 C26.1190298,38 25,36.88125 25,35.5 C25,34.12 26.1202801,33 27.4993748,33 Z M45.4993748,33 C46.8809702,33 48,34.12 48,35.5 C48,36.88125 46.8809702,38 45.4993748,38 C44.1190298,38 43,36.88125 43,35.5 C43,34.12 44.1202801,33 45.4993748,33 Z M45.4993748,44 C46.8809702,44 48,45.12 48,46.5 C48,47.88125 46.8809702,49 45.4993748,49 C44.1190298,49 43,47.88125 43,46.5 C43,45.12 44.1202801,44 45.4993748,44 Z M27.4993748,44 C28.8809702,44 30,45.12 30,46.5 C30,47.88125 28.8809702,49 27.4993748,49 C26.1190298,49 25,47.88125 25,46.5 C25,45.12 26.1202801,44 27.4993748,44 Z M36.4993748,50 C37.8809702,50 39,51.12 39,52.5 C39,53.88125 37.8809702,55 36.4993748,55 C35.1190298,55 34,53.88125 34,52.5 C34,51.12 35.1202801,50 36.4993748,50 Z M45.4993748,22 C46.8809702,22 48,23.12 48,24.5 C48,25.88125 46.8809702,27 45.4993748,27 C44.1190298,27 43,25.88125 43,24.5 C43,23.12 44.1202801,22 45.4993748,22 Z M54.4993748,39 C55.8809702,39 57,40.12 57,41.5 C57,42.88125 55.8809702,44 54.4993748,44 C53.1190298,44 52,42.88125 52,41.5 C52,40.12 53.1202801,39 54.4993748,39 Z M54.4993748,28 C55.8809702,28 57,29.12 57,30.5 C57,31.88125 55.8809702,33 54.4993748,33 C53.1190298,33 52,31.88125 52,30.5 C52,29.12 53.1202801,28 54.4993748,28 Z M18.4993748,39 C19.8809702,39 21,40.12 21,41.5 C21,42.88125 19.8809702,44 18.4993748,44 C17.1190298,44 16,42.88125 16,41.5 C16,40.12 17.1202801,39 18.4993748,39 Z M18.4993748,28 C19.8809702,28 21,29.12 21,30.5 C21,31.88125 19.8809702,33 18.4993748,33 C17.1190298,33 16,31.88125 16,30.5 C16,29.12 17.1202801,28 18.4993748,28 Z M36.4993748,17 C37.8809702,17 39,18.12 39,19.5 C39,20.88125 37.8809702,22 36.4993748,22 C35.1190298,22 34,20.88125 34,19.5 C34,18.12 35.1202801,17 36.4993748,17 Z" id="Combined-Shape" fill="#202020"></path>
            </g>
        </g>
    </g>
</svg>