<?xml version="1.0" encoding="UTF-8"?>
<svg width="72px" height="72px" viewBox="0 0 72 72" version="1.1" xmlns="http://www.w3.org/2000/svg" xmlns:xlink="http://www.w3.org/1999/xlink">
    <!-- Generator: Sketch 47.1 (45422) - http://www.bohemiancoding.com/sketch -->
    <title>icon-severesandstorm</title>
    <desc>Created with Sketch.</desc>
    <defs></defs>
    <g id="__wesketch_export" stroke="none" stroke-width="1" fill="none" fill-rule="evenodd">
        <g id="icon-severesandstorm">
            <g>
                <rect id="72px" x="0" y="0" width="72" height="72"></rect>
                <path d="M48.9987368,41.7894737 L48.9987368,41.7894737 L45.2092632,41.7894737 C43.8134737,41.7894737 42.6829474,40.6589474 42.6829474,39.2644211 C42.6829474,37.8698947 43.8134737,36.7381053 45.2092632,36.7381053 L48.9987368,36.7381053 C50.3932632,36.7381053 51.5250526,35.6063158 51.5250526,34.2130526 C51.5250526,32.8172632 50.3932632,31.6867368 48.9987368,31.6867368 C47.6029474,31.6867368 46.4724211,30.5549474 46.4724211,29.1604211 C46.4724211,27.7658947 47.6029474,26.6341053 48.9987368,26.6341053 C49.1717895,26.6341053 49.3410526,26.6517895 49.5065263,26.6858947 C53.4488421,26.9524211 56.5751579,30.2012632 56.5751579,34.2130526 C56.5751579,38.3966316 53.1835789,41.7894737 48.9987368,41.7894737 Z M48.9768485,14.0025263 C50.3584439,14.0025263 51.4774737,15.1225263 51.4774737,16.5025263 C51.4774737,17.8837763 50.3584439,19.0025263 48.9768485,19.0025263 C47.5965034,19.0025263 46.4774737,17.8837763 46.4774737,16.5025263 C46.4774737,15.1225263 47.5977538,14.0025263 48.9768485,14.0025263 Z M64.1347433,29.1604211 C65.5163387,29.1604211 66.6353684,30.2804211 66.6353684,31.6604211 C66.6353684,33.0416711 65.5163387,34.1604211 64.1347433,34.1604211 C62.7543982,34.1604211 61.6353684,33.0416711 61.6353684,31.6604211 C61.6353684,30.2804211 62.7556485,29.1604211 64.1347433,29.1604211 Z M59.0821117,21.5814737 C60.4637071,21.5814737 61.5827368,22.7014737 61.5827368,24.0814737 C61.5827368,25.4627237 60.4637071,26.5814737 59.0821117,26.5814737 C57.7017666,26.5814737 56.5827368,25.4627237 56.5827368,24.0814737 C56.5827368,22.7014737 57.7030169,21.5814737 59.0821117,21.5814737 Z M64.1347433,14.0025263 C65.5163387,14.0025263 66.6353684,15.1225263 66.6353684,16.5025263 C66.6353684,17.8837763 65.5163387,19.0025263 64.1347433,19.0025263 C62.7543982,19.0025263 61.6353684,17.8837763 61.6353684,16.5025263 C61.6353684,15.1225263 62.7556485,14.0025263 64.1347433,14.0025263 Z M59.0821117,39.2656842 C60.4637071,39.2656842 61.5827368,40.3856842 61.5827368,41.7656842 C61.5827368,43.1469342 60.4637071,44.2656842 59.0821117,44.2656842 C57.7017666,44.2656842 56.5827368,43.1469342 56.5827368,41.7656842 C56.5827368,40.3856842 57.7030169,39.2656842 59.0821117,39.2656842 Z M69.1873748,21.5814737 C70.5689702,21.5814737 71.688,22.7014737 71.688,24.0814737 C71.688,25.4627237 70.5689702,26.5814737 69.1873748,26.5814737 C67.8070298,26.5814737 66.688,25.4627237 66.688,24.0814737 C66.688,22.7014737 67.8082801,21.5814737 69.1873748,21.5814737 Z M36.3671579,36.7381053 L33.8408421,36.7381053 L25.0012632,36.7381053 L8.58147368,36.7381053 C7.18694737,36.7381053 6.05642105,37.8698947 6.05642105,39.2644211 C6.05642105,40.6589474 7.18694737,41.7894737 8.58147368,41.7894737 L11.1077895,41.7894737 L16.1591579,41.7894737 L19.9486316,41.7894737 L25.0012632,41.7894737 L28.7907368,41.7894737 L33.8408421,41.7894737 L36.3671579,41.7894737 C40.5532632,41.7894737 43.9461053,45.1835789 43.9461053,49.3684211 C43.9461053,53.3802105 40.8197895,56.6290526 36.8774737,56.8955789 C36.712,56.9296842 36.5427368,56.9473684 36.3671579,56.9473684 C34.9726316,56.9473684 33.8408421,55.8155789 33.8408421,54.4210526 C33.8408421,53.0252632 34.9726316,51.8947368 36.3671579,51.8947368 C37.7629474,51.8947368 38.8934737,50.7629474 38.8934737,49.3684211 C38.8934737,47.9738947 37.7629474,46.8421053 36.3671579,46.8421053 L33.8408421,46.8421053 L28.7907368,46.8421053 L25.0012632,46.8421053 L19.9486316,46.8421053 L16.1591579,46.8421053 L11.1077895,46.8421053 L8.58147368,46.8421053 C4.39663158,46.8421053 1.00378947,43.4492632 1.00378947,39.2644211 C1.00378947,35.2538947 4.13010526,32.0050526 8.07242105,31.7372632 C8.23789474,31.7044211 8.40842105,31.6867368 8.58147368,31.6867368 L8.58147368,31.6867368 L25.0012632,31.6867368 L33.8408421,31.6867368 L36.3671579,31.6867368 C37.7629474,31.6867368 38.8934737,30.5549474 38.8934737,29.1604211 C38.8934737,27.7658947 37.7629474,26.6341053 36.3671579,26.6341053 C34.9726316,26.6341053 33.8408421,25.5035789 33.8408421,24.1077895 C33.8408421,22.7132632 34.9726316,21.5814737 36.3671579,21.5814737 C36.5427368,21.5814737 36.712,21.6004211 36.8774737,21.6332632 C40.8197895,21.8997895 43.9461053,25.1486316 43.9461053,29.1604211 C43.9461053,33.344 40.5532632,36.7381053 36.3671579,36.7381053 Z" id="Shape" fill="#000000" fill-rule="nonzero"></path>
            </g>
        </g>
    </g>
</svg>