<?xml version="1.0" encoding="UTF-8"?>
<svg width="72px" height="72px" viewBox="0 0 72 72" version="1.1" xmlns="http://www.w3.org/2000/svg" xmlns:xlink="http://www.w3.org/1999/xlink">
    <!-- Generator: Sketch 47.1 (45422) - http://www.bohemiancoding.com/sketch -->
    <title>icon-cloudy</title>
    <desc>Created with Sketch.</desc>
    <defs></defs>
    <g id="__wesketch_export" stroke="none" stroke-width="1" fill="none" fill-rule="evenodd">
        <g id="icon-cloudy">
            <g>
                <rect id="72px" x="0" y="0" width="72" height="72"></rect>
                <path d="M69.0635636,39.0311273 L63.8272,39.0311273 C62.3819636,39.0311273 61.2090182,37.8594909 61.2090182,36.4129455 C61.2090182,34.9677091 62.3819636,33.7973818 63.8272,33.7973818 L69.0635636,33.7973818 C70.5088,33.7973818 71.6817455,34.9690182 71.6817455,36.4129455 C71.6817455,37.8594909 70.5088,39.0311273 69.0635636,39.0311273 Z M58.7780364,21.6045091 C57.7556364,22.6269091 56.0983273,22.6269091 55.0759273,21.6045091 C54.0535273,20.5834182 54.0535273,18.9248 55.0759273,17.9037091 L58.7780364,14.2016 C59.8004364,13.1792 61.4577455,13.1792 62.4801455,14.2016 C63.5025455,15.2226909 63.5025455,16.8813091 62.4801455,17.9037091 L58.7780364,21.6045091 Z M54.9201455,42.0354909 L54.9201455,42.0354909 C57.2097455,44.7662545 58.5934545,48.2798545 58.5934545,52.1220364 C58.5934545,60.7947636 51.5610182,67.8285091 42.8856727,67.8285091 C39.2529455,67.8285091 26.128,67.8285091 21.9428364,67.8285091 C10.3770182,67.8285091 1,58.4528 1,46.8856727 C1,35.3185455 10.3770182,25.9428364 21.9428364,25.9428364 C24.0007273,25.9428364 25.9879273,26.2465455 27.8638545,26.7989818 C30.7373091,23.0981818 35.2183273,20.7064727 40.2674909,20.7064727 C48.9428364,20.7064727 55.9752727,27.7402182 55.9752727,36.4129455 C55.9739636,38.3962182 55.5904,40.2891636 54.9201455,42.0354909 Z M6.23505455,46.8856727 C6.23505455,55.5610182 13.2661818,62.5921455 21.9415273,62.5921455 C26.6752,62.5921455 38.9322182,62.5921455 42.8843636,62.5921455 C48.6679273,62.5921455 53.3557818,57.9029818 53.3557818,52.1220364 C53.3557818,46.3384727 48.6679273,41.6493091 42.8843636,41.6493091 C40.7898182,41.6493091 38.8484364,42.2802909 37.2120727,43.3393455 C35.6005818,36.3802182 29.3915636,31.1792 21.9415273,31.1792 C13.2661818,31.1792 6.23505455,38.2103273 6.23505455,46.8856727 Z M40.2661818,25.9428364 C37.3704727,25.9428364 34.7483636,27.1184 32.8541091,29.0178909 C35.9173818,30.8977455 38.4635636,33.5381818 40.2229818,36.6813091 C41.0922182,36.5333818 41.9732364,36.4129455 42.8843636,36.4129455 C45.6661818,36.4129455 48.2765091,37.1447273 50.5425455,38.4119273 L50.5425455,38.4119273 C50.6682182,37.7652364 50.7389091,37.0976 50.7389091,36.4129455 C50.7389091,30.632 46.0497455,25.9428364 40.2661818,25.9428364 Z M40.2661818,15.4701091 C38.8209455,15.4701091 37.6493091,14.2984727 37.6493091,12.8532364 L37.6493091,7.61818182 C37.6493091,6.17163636 38.8222545,5 40.2661818,5 C41.7127273,5 42.8843636,6.17163636 42.8843636,7.61818182 L42.8843636,12.8532364 C42.8843636,14.2997818 41.7140364,15.4701091 40.2661818,15.4701091 Z M21.7556364,21.6045091 L18.0548364,17.9037091 C17.0324364,16.8813091 17.0324364,15.2226909 18.0548364,14.2016 C19.0759273,13.1792 20.7345455,13.1792 21.7556364,14.2016 L25.4577455,17.9037091 C26.4801455,18.9248 26.4801455,20.5834182 25.4577455,21.6045091 C24.4366545,22.6269091 22.7780364,22.6269091 21.7556364,21.6045091 Z" id="Shape" fill="#000000" fill-rule="nonzero"></path>
            </g>
        </g>
    </g>
</svg>