<?xml version="1.0" encoding="UTF-8"?>
<svg width="72px" height="72px" viewBox="0 0 72 72" version="1.1" xmlns="http://www.w3.org/2000/svg" xmlns:xlink="http://www.w3.org/1999/xlink">
    <!-- Generator: Sketch 47.1 (45422) - http://www.bohemiancoding.com/sketch -->
    <title>icon-fogandhaze</title>
    <desc>Created with Sketch.</desc>
    <defs></defs>
    <g id="__wesketch_export" stroke="none" stroke-width="1" fill="none" fill-rule="evenodd">
        <g id="icon-fogandhaze">
            <g>
                <rect id="72px" x="0" y="0" width="72" height="72"></rect>
                <path d="M8.5515,45.8449545 C8.20613636,44.9934091 7.928,44.1115455 7.69731818,43.2085909 L64.9986818,43.2085909 C64.9986818,44.1102273 64.9064091,44.9855 64.7600909,45.8449545 L8.5515,45.8449545 Z M17.8921364,19.4839545 C20.9160455,17.8085455 24.3907727,16.8489091 28.0922273,16.8489091 C31.7910455,16.8489091 35.2578636,17.8111818 38.2778182,19.4839545 L17.8921364,19.4839545 Z M7.18718182,35.3008182 C7.29922727,34.4018182 7.47454545,33.5252273 7.69731818,32.6657727 L60.9465909,32.6657727 C61.6729091,33.4738182 62.3161818,34.3543636 62.8645455,35.3008182 L7.18718182,35.3008182 Z M8.5515,30.0294091 C8.92190909,29.1159091 9.35954545,28.238 9.84859091,27.3930455 L46.3385,27.3930455 C46.3912273,27.4826818 46.4492273,27.571 46.5006364,27.6632727 C47.3759091,27.513 48.2643636,27.3930455 49.1805,27.3930455 C52.4113636,27.3930455 55.4141818,28.3658636 57.9160909,30.0294091 L8.5515,30.0294091 Z M11.6452727,24.7566818 C12.4098182,23.8036364 13.2600455,22.9270455 14.1761818,22.1203182 L42.0188182,22.1203182 C42.9283636,22.9244091 43.7667273,23.8075909 44.5273182,24.7566818 L11.6452727,24.7566818 Z M64.7587727,40.5722273 L7.18718182,40.5722273 C7.07909091,39.7075 7.00395455,38.8322273 7.00395455,37.9371818 L64.0785909,37.9371818 C64.3778182,38.7847727 64.6071818,39.6653182 64.7587727,40.5722273 Z M64.0785909,48.4813182 C63.753,49.4027273 63.347,50.2832727 62.8645455,51.1176818 L11.6452727,51.1176818 C10.9795909,50.2885455 10.3837727,49.4053636 9.84859091,48.4813182 L64.0785909,48.4813182 Z M14.1761818,53.7540455 L60.9452727,53.7540455 C60.0489091,54.7532273 59.0378636,55.6443182 57.9147727,56.3890909 L17.8921364,56.3890909 C16.5528636,55.6482727 15.3164091,54.7545455 14.1761818,53.7540455 Z" id="Shape" fill="#000000" fill-rule="nonzero"></path>
            </g>
        </g>
    </g>
</svg>