<?xml version="1.0" encoding="UTF-8"?>
<svg width="72px" height="72px" viewBox="0 0 72 72" version="1.1" xmlns="http://www.w3.org/2000/svg" xmlns:xlink="http://www.w3.org/1999/xlink">
    <!-- Generator: Sketch 47.1 (45422) - http://www.bohemiancoding.com/sketch -->
    <title>icon-moon</title>
    <desc>Created with Sketch.</desc>
    <defs></defs>
    <g id="__wesketch_export" stroke="none" stroke-width="1" fill="none" fill-rule="evenodd">
        <g id="icon-moon">
            <g>
                <rect id="72px" x="0" y="0" width="72" height="72"></rect>
                <path d="M36,64.9951667 C19.98475,64.9951667 7.00241667,52.0128333 7.00241667,36 C7.00241667,19.98475 19.98475,7.00241667 36,7.00241667 C37.8245833,7.00241667 39.60325,7.19091667 41.3335833,7.51475 C41.0145833,8.90675 40.8309167,10.3495 40.8309167,11.83575 C40.8309167,22.5125833 49.4874167,31.1666667 60.16425,31.1666667 C61.6505,31.1666667 63.09325,30.983 64.48525,30.664 C64.8066667,32.39675 64.9951667,34.173 64.9951667,36 C64.9951667,52.0128333 52.0128333,64.9951667 36,64.9951667 Z M32.0213414,13.085875 C22.0389371,15.3681288 14.5858203,24.283797 14.5858203,34.9595798 C14.5858203,47.3589835 24.6384046,57.414375 37.0406155,57.414375 C47.7135911,57.414375 56.6292592,49.9612582 58.9115131,39.9788539 C45.2853628,37.4411448 34.5562432,26.7120253 32.0213414,13.085875 Z" id="Shape" fill="#000000" fill-rule="nonzero"></path>
            </g>
        </g>
    </g>
</svg>