<?xml version="1.0" encoding="UTF-8"?>
<svg width="72px" height="72px" viewBox="0 0 72 72" version="1.1" xmlns="http://www.w3.org/2000/svg" xmlns:xlink="http://www.w3.org/1999/xlink">
    <!-- Generator: Sketch 47.1 (45422) - http://www.bohemiancoding.com/sketch -->
    <title>icon-sunny</title>
    <desc>Created with Sketch.</desc>
    <defs></defs>
    <g id="__wesketch_export" stroke="none" stroke-width="1" fill="none" fill-rule="evenodd">
        <g id="icon-sunny">
            <g>
                <rect id="72px" x="0" y="0" width="72" height="72"></rect>
                <path d="M68.9955,38.9985 L62.9985,38.9985 C61.341,38.9985 59.9985,37.656 59.9985,36 C59.9985,34.344 61.341,33 62.9985,33 L68.9955,33 C70.653,33 71.9955,34.344 71.9955,36 C71.9955,37.656 70.6545,38.9985 68.9955,38.9985 Z M57.213,19.032 C56.0415,20.2035 54.1395,20.2035 52.971,19.032 C51.7995,17.8605 51.7995,15.9615 52.971,14.79 L57.213,10.548 C58.3815,9.3765 60.2835,9.3765 61.455,10.548 C62.6235,11.7195 62.6235,13.6185 61.455,14.79 L57.213,19.032 Z M36.0015,53.997 C26.061,53.997 18.0015,45.939 18.0015,36 C18.0015,26.0595 26.0595,18.0015 36.0015,18.0015 C45.942,18.0015 53.9985,26.0595 53.9985,36 C53.9985,45.939 45.942,53.997 36.0015,53.997 Z M36.0015,24.0015 C29.3745,24.0015 24.0015,29.373 24.0015,36 C24.0015,42.6255 29.376,47.9985 36.0015,47.9985 C42.627,47.9985 47.9985,42.6255 47.9985,36 C47.9985,29.373 42.6285,24.0015 36.0015,24.0015 Z M36.0015,12.003 C34.344,12.003 33.0015,10.659 33.0015,9.003 L33.0015,3.0045 C33.0015,1.3485 34.344,0.0045 36.0015,0.0045 C37.6575,0.0045 39.0015,1.3485 39.0015,3.0045 L39.0015,9.003 C39.0015,10.659 37.656,12.003 36.0015,12.003 Z M14.79,19.032 L10.548,14.79 C9.3765,13.6185 9.3765,11.7195 10.548,10.548 C11.7195,9.3765 13.6185,9.3765 14.79,10.548 L19.032,14.79 C20.2035,15.9615 20.2035,17.8605 19.032,19.032 C17.8605,20.2035 15.9615,20.2035 14.79,19.032 Z M12.003,36 C12.003,37.656 10.659,38.9985 9.003,38.9985 L3.003,38.9985 C1.347,38.9985 0.0045,37.656 0.0045,36 C0.0045,34.344 1.3485,33 3.003,33 L9.003,33 C10.6605,33 12.003,34.344 12.003,36 Z M14.79,52.968 C15.9615,51.798 17.8605,51.798 19.032,52.968 C20.2035,54.1395 20.2035,56.04 19.032,57.21 L14.79,61.452 C13.6185,62.6235 11.7195,62.6235 10.548,61.452 C9.3765,60.282 9.3765,58.3815 10.548,57.21 L14.79,52.968 Z M36.0015,59.997 C37.6575,59.997 39.0015,61.3395 39.0015,62.9955 L39.0015,68.9955 C39.0015,70.6515 37.6575,71.9955 36.0015,71.9955 C34.344,71.9955 33.0015,70.6515 33.0015,68.9955 L33.0015,62.9955 C33.0015,61.3395 34.344,59.997 36.0015,59.997 Z M57.213,52.968 L61.455,57.21 C62.6235,58.3815 62.6235,60.282 61.455,61.452 C60.2835,62.6235 58.3815,62.6235 57.213,61.452 L52.971,57.21 C51.7995,56.04 51.7995,54.1395 52.971,52.968 C54.1395,51.7965 56.04,51.7965 57.213,52.968 Z" id="Shape" fill="#000000" fill-rule="nonzero"></path>
            </g>
        </g>
    </g>
</svg>