<?xml version="1.0" encoding="UTF-8"?>
<svg width="72px" height="72px" viewBox="0 0 72 72" version="1.1" xmlns="http://www.w3.org/2000/svg" xmlns:xlink="http://www.w3.org/1999/xlink">
    <!-- Generator: Sketch 47.1 (45422) - http://www.bohemiancoding.com/sketch -->
    <title>icon-heavyrain</title>
    <desc>Created with Sketch.</desc>
    <defs></defs>
    <g id="__wesketch_export" stroke="none" stroke-width="1" fill="none" fill-rule="evenodd">
        <g id="icon-heavyrain">
            <g>
                <rect id="72px" x="0" y="0" width="72" height="72"></rect>
                <path d="M54.6154222,48.1684 L54.6154222,42.5217778 C57.692,40.7366667 59.7684,37.4164889 59.7684,33.6026667 C59.7684,27.9083556 55.1541778,23.2915556 49.4598667,23.2915556 C47.3950667,23.2915556 45.4849333,23.9115111 43.8738222,24.9555111 C42.2859111,18.1037778 36.1752889,12.9817333 28.8402222,12.9817333 C20.2987556,12.9817333 13.3761333,19.9056444 13.3761333,28.4471111 C13.3761333,33.0213778 15.3726222,37.1200444 18.5291111,39.9517333 L18.5291111,46.2853333 C12.3720889,42.7176889 8.22057778,36.0747556 8.22057778,28.4471111 C8.22057778,17.0584889 17.4516,7.82746667 28.8402222,7.82746667 C36.5787111,7.82746667 43.3131556,12.0962667 46.8395556,18.4002222 C47.6953778,18.2545778 48.5615111,18.136 49.4598667,18.136 C58.0013333,18.136 64.9239556,25.0612 64.9239556,33.6026667 C64.9239556,40.3319556 60.6177778,46.0443111 54.6154222,48.1684 Z M26.2624444,33.6039556 C27.6853778,33.6039556 28.8402222,34.7575111 28.8402222,36.1817333 L28.8402222,41.3347111 C28.8402222,42.7589333 27.6853778,43.9124889 26.2624444,43.9124889 C24.8382222,43.9124889 23.6846667,42.7589333 23.6846667,41.3347111 L23.6846667,36.1817333 C23.6846667,34.7562222 24.8382222,33.6039556 26.2624444,33.6039556 Z M26.2624444,49.0680444 C27.6853778,49.0680444 28.8402222,50.2216 28.8402222,51.6458222 L28.8402222,56.7988 C28.8402222,58.2230222 27.6853778,59.3765778 26.2624444,59.3765778 C24.8382222,59.3765778 23.6846667,58.2230222 23.6846667,56.7988 L23.6846667,51.6458222 C23.6846667,50.2203111 24.8382222,49.0680444 26.2624444,49.0680444 Z M36.5709778,38.7569333 C37.9952,38.7569333 39.1487556,39.9117778 39.1487556,41.3347111 L39.1487556,46.4902667 C39.1487556,47.9132 37.9952,49.0680444 36.5709778,49.0680444 C35.1480444,49.0680444 33.9957778,47.9132 33.9957778,46.4902667 L33.9957778,41.3347111 C33.9957778,39.9117778 35.1493333,38.7569333 36.5709778,38.7569333 Z M36.5709778,54.2236 C37.9952,54.2236 39.1487556,55.3771556 39.1487556,56.7988 L39.1487556,61.9543556 C39.1487556,63.3785778 37.9952,64.5321333 36.5709778,64.5321333 C35.1480444,64.5321333 33.9957778,63.3785778 33.9957778,61.9543556 L33.9957778,56.7988 C33.9957778,55.3758667 35.1493333,54.2236 36.5709778,54.2236 Z M46.8820889,33.6039556 C48.3050222,33.6039556 49.4598667,34.7575111 49.4598667,36.1817333 L49.4598667,41.3347111 C49.4598667,42.7589333 48.3050222,43.9124889 46.8820889,43.9124889 C45.4578667,43.9124889 44.3043111,42.7589333 44.3043111,41.3347111 L44.3043111,36.1817333 C44.3043111,34.7562222 45.4578667,33.6039556 46.8820889,33.6039556 Z M46.8820889,49.0680444 C48.3050222,49.0680444 49.4598667,50.2216 49.4598667,51.6458222 L49.4598667,56.7988 C49.4598667,58.2230222 48.3050222,59.3765778 46.8820889,59.3765778 C45.4578667,59.3765778 44.3043111,58.2230222 44.3043111,56.7988 L44.3043111,51.6458222 C44.3043111,50.2203111 45.4578667,49.0680444 46.8820889,49.0680444 Z" id="Shape" fill="#000000" fill-rule="nonzero"></path>
            </g>
        </g>
    </g>
</svg>