<?xml version="1.0" encoding="UTF-8"?>
<svg width="72px" height="72px" viewBox="0 0 72 72" version="1.1" xmlns="http://www.w3.org/2000/svg" xmlns:xlink="http://www.w3.org/1999/xlink">
    <!-- Generator: Sketch 47.1 (45422) - http://www.bohemiancoding.com/sketch -->
    <title>icon-rainstorm</title>
    <desc>Created with Sketch.</desc>
    <defs></defs>
    <g id="__wesketch_export" stroke="none" stroke-width="1" fill="none" fill-rule="evenodd">
        <g id="icon-rainstorm">
            <g>
                <rect id="72px" x="0" y="0" width="72" height="72"></rect>
                <path d="M54.6154222,48.1684 L54.6154222,42.5217778 C57.6945778,40.7392444 59.7709778,37.4164889 59.7709778,33.6026667 C59.7709778,27.9096444 55.1541778,23.2928444 49.4598667,23.2928444 C47.3976444,23.2928444 45.4875111,23.9115111 43.8751111,24.9568 C42.2884889,18.1037778 36.1752889,12.9830222 28.8402222,12.9830222 C20.3000444,12.9830222 13.3761333,19.9069333 13.3761333,28.4471111 C13.3761333,33.0226667 15.3752,37.1187556 18.5316889,39.9504444 L18.5316889,46.2866222 C12.3746667,42.7189778 8.22057778,36.0760444 8.22057778,28.4471111 C8.22057778,17.0597778 17.4528889,7.82875556 28.8402222,7.82875556 C36.5787111,7.82875556 43.3131556,12.0962667 46.8395556,18.4015111 C47.6953778,18.2558667 48.5640889,18.1372889 49.4598667,18.1372889 C58.0013333,18.1372889 64.9252444,25.0612 64.9252444,33.6026667 C64.9252444,40.3345333 60.6190667,46.0443111 54.6154222,48.1684 Z M26.2637333,33.6039556 C27.6866667,33.6039556 28.8402222,34.7588 28.8402222,36.1817333 L28.8402222,56.8013778 C28.8402222,58.2256 27.6866667,59.3791556 26.2637333,59.3791556 C24.8408,59.3791556 23.6859556,58.2256 23.6859556,56.8013778 L23.6859556,36.1817333 C23.6859556,34.7588 24.8408,33.6039556 26.2637333,33.6039556 Z M36.5735556,38.7595111 C37.9964889,38.7595111 39.1513333,39.9130667 39.1513333,41.3372889 L39.1513333,61.9569333 C39.1513333,63.3798667 37.9964889,64.5347111 36.5735556,64.5347111 C35.1506222,64.5347111 33.9957778,63.3798667 33.9957778,61.9569333 L33.9957778,41.3372889 C33.9957778,39.9117778 35.1506222,38.7595111 36.5735556,38.7595111 Z M46.8833778,33.6039556 C48.3063111,33.6039556 49.4598667,34.7588 49.4598667,36.1817333 L49.4598667,56.8013778 C49.4598667,58.2256 48.3063111,59.3791556 46.8833778,59.3791556 C45.4604444,59.3791556 44.3056,58.2256 44.3056,56.8013778 L44.3056,36.1817333 C44.3056,34.7588 45.4604444,33.6039556 46.8833778,33.6039556 Z" id="Shape" fill="#000000" fill-rule="nonzero"></path>
            </g>
        </g>
    </g>
</svg>