<?xml version="1.0" encoding="UTF-8"?>
<svg width="72px" height="72px" viewBox="0 0 72 72" version="1.1" xmlns="http://www.w3.org/2000/svg" xmlns:xlink="http://www.w3.org/1999/xlink">
    <!-- Generator: Sketch 47.1 (45422) - http://www.bohemiancoding.com/sketch -->
    <title>icon-moderaterain</title>
    <desc>Created with Sketch.</desc>
    <defs></defs>
    <g id="__wesketch_export" stroke="none" stroke-width="1" fill="none" fill-rule="evenodd">
        <g id="icon-moderaterain">
            <g>
                <rect id="72px" x="0" y="0" width="72" height="72"></rect>
                <path d="M49.4598667,19.1385778 C48.5628,19.1385778 47.6953778,19.2571556 46.8395556,19.4028 C43.3131556,13.0975556 36.5787111,8.83004444 28.8402222,8.83004444 C17.4528889,8.83004444 8.22057778,18.0610667 8.22057778,29.4484 C8.22057778,37.1714222 12.4739111,43.8929778 18.7598222,47.4245333 C19.1155556,45.7979556 19.9095111,44.2474222 21.1739111,42.9843111 L21.2473778,42.9108444 C16.5506667,40.2544444 13.3774222,35.2252 13.3774222,29.4484 C13.3774222,20.9082222 20.3013333,13.9843111 28.8415111,13.9843111 C36.1765778,13.9843111 42.2884889,19.1063556 43.8764,25.9580889 C45.4875111,24.9140889 47.3989333,24.2941333 49.4611556,24.2941333 C55.1554667,24.2941333 59.7709778,28.9096444 59.7709778,34.6039556 C59.7709778,39.0416 56.9586222,42.8154667 53.0236444,44.2680444 C54.0392889,45.7451111 54.5625778,47.4528889 54.5986667,49.1748444 C60.6113333,47.0546222 64.9278222,41.3409778 64.9278222,34.6039556 C64.9252444,26.0624889 58.0013333,19.1385778 49.4598667,19.1385778 Z M27.5513333,43.8955556 L24.8176,46.6292889 C23.3083111,48.1398667 23.3083111,50.5861778 24.8176,52.0967556 C26.3281778,53.6073333 28.7757778,53.6073333 30.2850667,52.0967556 C31.7956444,50.5861778 31.7956444,48.1398667 30.2850667,46.6292889 L27.5513333,43.8955556 Z M36.5735556,54.2040889 L33.8398222,56.9378222 C32.3292444,58.4484 32.3292444,60.8972889 33.8398222,62.4052889 C35.3491111,63.9158667 37.7967111,63.9158667 39.306,62.4052889 C40.8165778,60.8972889 40.8165778,58.4484 39.306,56.9378222 L36.5735556,54.2040889 Z M45.5944889,43.8955556 L42.8607556,46.6292889 C41.3501778,48.1398667 41.3501778,50.5861778 42.8607556,52.0967556 C44.3700444,53.6073333 46.8176444,53.6073333 48.3282222,52.0967556 C49.8375111,50.5861778 49.8375111,48.1398667 48.3282222,46.6292889 L45.5944889,43.8955556 Z" id="Shape" fill="#000000" fill-rule="nonzero"></path>
            </g>
        </g>
    </g>
</svg>