<?xml version="1.0" encoding="UTF-8"?>
<svg width="72px" height="72px" viewBox="0 0 72 72" version="1.1" xmlns="http://www.w3.org/2000/svg" xmlns:xlink="http://www.w3.org/1999/xlink">
    <!-- Generator: Sketch 47.1 (45422) - http://www.bohemiancoding.com/sketch -->
    <title>icon-sandstorm</title>
    <desc>Created with Sketch.</desc>
    <defs></defs>
    <g id="__wesketch_export" stroke="none" stroke-width="1" fill="none" fill-rule="evenodd">
        <g id="icon-sandstorm">
            <g>
                <rect id="72px" x="0" y="0" width="72" height="72"></rect>
                <path d="M51.3195094,39.4150943 L51.3195094,39.4150943 L47.5836604,39.4150943 C46.2076226,39.4150943 45.0930943,38.300566 45.0930943,36.9257736 C45.0930943,35.5509811 46.2076226,34.4352075 47.5836604,34.4352075 L51.3195094,34.4352075 C52.6943019,34.4352075 53.8100755,33.319434 53.8100755,31.9458868 C53.8100755,30.5698491 52.6943019,29.4553208 51.3195094,29.4553208 C49.9434717,29.4553208 48.8289434,28.3395472 48.8289434,26.9647547 C48.8289434,25.5899623 49.9434717,24.4741887 51.3195094,24.4741887 C51.4901132,24.4741887 51.6569811,24.4916226 51.8201132,24.5252453 C55.7066415,24.788 58.788717,27.9908679 58.788717,31.9458868 C58.788717,36.0702642 55.4451321,39.4150943 51.3195094,39.4150943 Z M63.7861296,34.4364528 C65.167725,34.4364528 66.2867547,35.5564528 66.2867547,36.9364528 C66.2867547,38.3177028 65.167725,39.4364528 63.7861296,39.4364528 C62.4057845,39.4364528 61.2867547,38.3177028 61.2867547,36.9364528 C61.2867547,35.5564528 62.4070348,34.4364528 63.7861296,34.4364528 Z M58.8049975,17.0024906 C60.1865929,17.0024906 61.3056226,18.1224906 61.3056226,19.5024906 C61.3056226,20.8837406 60.1865929,22.0024906 58.8049975,22.0024906 C57.4246524,22.0024906 56.3056226,20.8837406 56.3056226,19.5024906 C56.3056226,18.1224906 57.4259027,17.0024906 58.8049975,17.0024906 Z M66.2766956,24.4741887 C67.658291,24.4741887 68.7773208,25.5941887 68.7773208,26.9741887 C68.7773208,28.3554387 67.658291,29.4741887 66.2766956,29.4741887 C64.8963505,29.4741887 63.7773208,28.3554387 63.7773208,26.9741887 C63.7773208,25.5941887 64.8976008,24.4741887 66.2766956,24.4741887 Z M38.8666792,34.4352075 L36.3761132,34.4352075 L27.6616226,34.4352075 L11.4741887,34.4352075 C10.0993962,34.4352075 8.98486792,35.5509811 8.98486792,36.9257736 C8.98486792,38.300566 10.0993962,39.4150943 11.4741887,39.4150943 L13.9647547,39.4150943 L18.9446415,39.4150943 L22.6804906,39.4150943 L27.6616226,39.4150943 L31.3974717,39.4150943 L36.3761132,39.4150943 L38.8666792,39.4150943 C42.9935472,39.4150943 46.3383774,42.7611698 46.3383774,46.8867925 C46.3383774,50.8418113 43.2563019,54.0446792 39.3697736,54.307434 C39.2066415,54.3410566 39.0397736,54.3584906 38.8666792,54.3584906 C37.4918868,54.3584906 36.3761132,53.242717 36.3761132,51.8679245 C36.3761132,50.4918868 37.4918868,49.3773585 38.8666792,49.3773585 C40.242717,49.3773585 41.3572453,48.2615849 41.3572453,46.8867925 C41.3572453,45.512 40.242717,44.3962264 38.8666792,44.3962264 L36.3761132,44.3962264 L31.3974717,44.3962264 L27.6616226,44.3962264 L22.6804906,44.3962264 L18.9446415,44.3962264 L13.9647547,44.3962264 L11.4741887,44.3962264 C7.34856604,44.3962264 4.00373585,41.0513962 4.00373585,36.9257736 C4.00373585,32.972 7.08581132,29.7691321 10.9723396,29.5051321 C11.1354717,29.4727547 11.3035849,29.4553208 11.4741887,29.4553208 L11.4741887,29.4553208 L27.6616226,29.4553208 L36.3761132,29.4553208 L38.8666792,29.4553208 C40.242717,29.4553208 41.3572453,28.3395472 41.3572453,26.9647547 C41.3572453,25.5899623 40.242717,24.4741887 38.8666792,24.4741887 C37.4918868,24.4741887 36.3761132,23.3596604 36.3761132,21.9836226 C36.3761132,20.6088302 37.4918868,19.4930566 38.8666792,19.4930566 C39.0397736,19.4930566 39.2066415,19.5117358 39.3697736,19.5441132 C43.2563019,19.8068679 46.3383774,23.0097358 46.3383774,26.9647547 C46.3383774,31.0891321 42.9935472,34.4352075 38.8666792,34.4352075 Z" id="Shape" fill="#000000" fill-rule="nonzero"></path>
            </g>
        </g>
    </g>
</svg>