<?xml version="1.0" encoding="UTF-8"?>
<svg width="72px" height="72px" viewBox="0 0 72 72" version="1.1" xmlns="http://www.w3.org/2000/svg" xmlns:xlink="http://www.w3.org/1999/xlink">
    <!-- Generator: Sketch 47.1 (45422) - http://www.bohemiancoding.com/sketch -->
    <title>icon-drizzle</title>
    <desc>Created with Sketch.</desc>
    <defs></defs>
    <g id="__wesketch_export" stroke="none" stroke-width="1" fill="none" fill-rule="evenodd">
        <g id="icon-drizzle">
            <g>
                <rect id="72px" x="0" y="0" width="72" height="72"></rect>
                <path d="M49.1805,54.0254545 C48.8298636,54.0254545 48.3711364,54.0254545 47.8623182,54.0254545 C47.8623182,52.2169091 47.4418182,50.411 46.6192727,48.7527273 C47.6435,48.7527273 48.5319545,48.7527273 49.1805,48.7527273 C55.0042273,48.7527273 59.7246364,44.0336364 59.7246364,38.2099091 C59.7246364,32.3861818 55.0042273,27.6657727 49.1805,27.6657727 C47.0714091,27.6657727 45.1165455,28.2998182 43.4675,29.3662273 C41.8448182,22.3587727 35.594,17.1216364 28.0922273,17.1216364 C19.3566364,17.1216364 12.2766818,24.2029091 12.2766818,32.9371818 C12.2766818,40.7843182 17.9962727,47.2776818 25.4888182,48.5207273 C24.6491364,50.1249545 24.2115,51.8807727 24.1548182,53.6445 C14.3923636,51.8003636 7.00263636,43.2374545 7.00263636,32.9371818 C7.00263636,21.2910455 16.4434545,11.8489091 28.0909091,11.8489091 C36.0052727,11.8489091 42.8927727,16.2147273 46.4993182,22.6632727 C47.3745909,22.513 48.2617273,22.3930455 49.1791818,22.3930455 C57.9147727,22.3930455 64.9947273,29.4743182 64.9947273,38.2099091 C64.9947273,46.9455 57.9160909,54.0254545 49.1805,54.0254545 Z M36.0013182,44.7045909 L40.6610909,49.3643636 C43.2328636,51.9387727 43.2328636,56.1108182 40.6610909,58.6839091 C38.0866818,61.2583182 33.9133182,61.2583182 31.3415455,58.6839091 C28.7671364,56.1108182 28.7671364,51.9387727 31.3415455,49.3643636 L36.0013182,44.7045909 Z" id="Shape" fill="#000000" fill-rule="nonzero"></path>
            </g>
        </g>
    </g>
</svg>