<?xml version="1.0" encoding="UTF-8"?>
<svg width="14px" height="14px" viewBox="0 0 14 14" version="1.1" xmlns="http://www.w3.org/2000/svg" xmlns:xlink="http://www.w3.org/1999/xlink">
    <!-- Generator: Sketch 47.1 (45422) - http://www.bohemiancoding.com/sketch -->
    <title>icon-切换城市</title>
    <desc>Created with Sketch.</desc>
    <defs></defs>
    <g id="__wesketch_export" stroke="none" stroke-width="1" fill="none" fill-rule="evenodd">
        <g id="icon-切换城市">
            <g>
                <rect id="14px" x="0" y="0" width="14" height="14"></rect>
                <path d="M12.7252573,7.66370701 L1.52748228,7.66370701 C1.3316278,7.65147885 1.14694394,7.75574553 1.05623519,7.92975824 C0.965526433,8.10377096 0.985810853,8.3148828 1.10799377,8.46844009 L2.04114169,9.37590503 L4.22419416,11.4904696 C4.39931082,11.6567981 4.67402977,11.6567981 4.84914643,11.4904696 L5.47409872,10.8826393 C5.55732716,10.8034551 5.60443987,10.6936028 5.60443987,10.5787241 C5.60443987,10.4638454 5.55732716,10.3539932 5.47409872,10.274809 L4.54095079,9.37590503 L12.7338183,9.37590503 C12.8756614,9.37590503 12.990648,9.26091846 12.990648,9.11907533 L12.990648,7.92053672 C12.9906867,7.85091168 12.9624559,7.78425437 12.9124232,7.73583562 C12.8623905,7.68741687 12.7948437,7.66138617 12.7252573,7.66370701 L12.7252573,7.66370701 Z M1.27065258,5.95150899 L12.4684276,5.95150899 C12.6642821,5.96373716 12.848966,5.85947048 12.9396747,5.68545776 C13.0303835,5.51144505 13.010099,5.30033321 12.8879161,5.14677592 L11.9547682,4.23931097 L9.77171574,2.12474642 C9.59659908,1.95841786 9.32188012,1.95841786 9.14676346,2.12474642 L8.52181119,2.73257672 C8.43858274,2.81176094 8.39147003,2.92161317 8.39147003,3.03649187 C8.39147003,3.15137057 8.43858274,3.26122279 8.52181119,3.34040701 L9.4549591,4.23931097 L1.27065258,4.23931097 C1.20106623,4.23699013 1.13351938,4.26302083 1.08348667,4.31143958 C1.03345396,4.35985833 1.0052232,4.42651564 1.00526189,4.49614068 L1.00526189,5.69467929 C1.0052232,5.76430433 1.03345396,5.83096164 1.08348667,5.87938039 C1.13351938,5.92779914 1.20106623,5.95382984 1.27065258,5.95150899 Z" id="Shape" fill="#B6B6B6" fill-rule="nonzero"></path>
            </g>
        </g>
    </g>
</svg>