<?xml version="1.0" encoding="UTF-8"?>
<svg width="72px" height="72px" viewBox="0 0 72 72" version="1.1" xmlns="http://www.w3.org/2000/svg" xmlns:xlink="http://www.w3.org/1999/xlink">
    <!-- Generator: Sketch 47.1 (45422) - http://www.bohemiancoding.com/sketch -->
    <title>icon-lightsnow</title>
    <desc>Created with Sketch.</desc>
    <defs></defs>
    <g id="__wesketch_export" stroke="none" stroke-width="1" fill="none" fill-rule="evenodd">
        <g id="icon-lightsnow">
            <g>
                <rect id="72px" x="0" y="0" width="72" height="72"></rect>
                <path d="M49.1805,55.0254545 C48.8298636,55.0254545 48.3711364,55.0254545 47.8623182,55.0254545 C47.8623182,53.2169091 47.4418182,51.411 46.6192727,49.7527273 C47.6435,49.7527273 48.5319545,49.7527273 49.1805,49.7527273 C55.0042273,49.7527273 59.7246364,45.0336364 59.7246364,39.2099091 C59.7246364,33.3861818 55.0042273,28.6657727 49.1805,28.6657727 C47.0714091,28.6657727 45.1165455,29.2998182 43.4675,30.3662273 C41.8448182,23.3587727 35.594,18.1216364 28.0922273,18.1216364 C19.3566364,18.1216364 12.2766818,25.2029091 12.2766818,33.9371818 C12.2766818,41.7843182 17.9962727,48.2776818 25.4888182,49.5207273 C24.6491364,51.1249545 24.2115,52.8807727 24.1548182,54.6445 C14.3923636,52.8003636 7.00263636,44.2374545 7.00263636,33.9371818 C7.00263636,22.2910455 16.4434545,12.8489091 28.0909091,12.8489091 C36.0052727,12.8489091 42.8927727,17.2147273 46.4993182,23.6632727 C47.3745909,23.513 48.2617273,23.3930455 49.1791818,23.3930455 C57.9147727,23.3930455 64.9947273,30.4743182 64.9947273,39.2099091 C64.9947273,47.9455 57.9160909,55.0254545 49.1805,55.0254545 Z M27.3474938,44.0044646 C28.0602494,42.770998 29.6352716,42.3508202 30.8687383,43.060998 L33.6991383,44.6940202 L33.6991383,41.4266869 C33.6991383,40.0037535 34.8539827,38.8489091 36.276916,38.8489091 C37.6998494,38.8489091 38.8546938,40.0037535 38.8546938,41.4266869 L38.8546938,44.6940202 L41.6838049,43.0597091 C42.9172716,42.3495313 44.4935827,42.7697091 45.2037605,44.0031758 C45.916516,45.2366424 45.4937605,46.8129535 44.2615827,47.5244202 L41.4311827,49.1587313 L44.2615827,50.7930424 C45.4937605,51.505798 45.916516,53.0808202 45.2037605,54.3142869 C44.4922938,55.5451758 42.9172716,55.9679313 41.6838049,55.2551758 L38.8546938,53.6234424 L38.8546938,56.8907758 C38.8546938,58.314998 37.6998494,59.4685535 36.276916,59.4685535 C34.8539827,59.4685535 33.6991383,58.314998 33.6991383,56.8907758 L33.6991383,53.6234424 L30.8700272,55.2577535 C29.6365605,55.9705091 28.0602494,55.5477535 27.3487827,54.3168646 C26.637316,53.083398 27.0587827,51.5070869 28.2922494,50.7956202 L31.1213605,49.1600202 L28.2922494,47.5257091 C27.0587827,46.8129535 26.637316,45.2379313 27.3474938,44.0044646 Z M36.5804141,52.0044646 C38.0033475,52.0044646 39.1581919,50.8496202 39.1581919,49.4266869 C39.1581919,48.0024646 38.0033475,46.8489091 36.5804141,46.8489091 C35.1574808,46.8489091 34.0026364,48.0024646 34.0026364,49.4266869 C34.0026364,50.8483313 35.1574808,52.0044646 36.5804141,52.0044646 Z" id="Shape" fill="#000000" fill-rule="nonzero"></path>
            </g>
        </g>
    </g>
</svg>