<?xml version="1.0" encoding="UTF-8"?>
<svg width="72px" height="72px" viewBox="0 0 72 72" version="1.1" xmlns="http://www.w3.org/2000/svg" xmlns:xlink="http://www.w3.org/1999/xlink">
    <!-- Generator: Sketch 47.1 (45422) - http://www.bohemiancoding.com/sketch -->
    <title>icon-hail</title>
    <desc>Created with Sketch.</desc>
    <defs></defs>
    <g id="__wesketch_export" stroke="none" stroke-width="1" fill="none" fill-rule="evenodd">
        <g id="icon-hail">
            <g>
                <rect id="72px" x="0" y="0" width="72" height="72"></rect>
                <path d="M54.4532273,48.1040455 L54.4532273,42.3290909 C57.6023636,40.5060455 59.7246364,37.1077727 59.7246364,33.2072727 C59.7246364,27.3848636 55.0042273,22.6631364 49.1818182,22.6631364 C47.0714091,22.6631364 45.1165455,23.2958636 43.4688182,24.3649091 C41.8461364,17.3561364 35.594,12.119 28.0922273,12.119 C19.3579545,12.119 12.2766818,19.2002727 12.2766818,27.9345455 C12.2766818,32.6140909 14.3198636,36.8032727 17.5480909,39.6993182 L17.5480909,46.1795 C11.2524545,42.5307727 7.00527273,35.7368636 7.00527273,27.9345455 C7.00527273,16.2884091 16.4460909,6.84759091 28.0922273,6.84759091 C36.0065909,6.84759091 42.8940909,11.2120909 46.5019545,17.6606364 C47.3759091,17.5116818 48.2630455,17.3904091 49.1818182,17.3904091 C57.9160909,17.3904091 64.9973636,24.4716818 64.9973636,33.2072727 C64.9973636,40.0921364 60.592,45.9316818 54.4532273,48.1040455 Z M25.4571818,49.0241364 C24.0019091,49.0241364 24.139,47.8443636 24.139,46.3904091 L24.139,35.8449545 C24.139,34.3896818 24.0019091,33.2085909 25.4571818,33.2085909 C26.9124545,33.2085909 26.7753636,34.3896818 26.7753636,35.8449545 L26.7753636,46.3904091 C26.7753636,47.8443636 26.9124545,49.0241364 25.4571818,49.0241364 Z M25.4571818,54.2968636 C26.9124545,54.2968636 28.0922273,55.4779545 28.0922273,56.9332273 C28.0922273,58.3898182 26.9124545,59.5695909 25.4571818,59.5695909 C24.0019091,59.5695909 22.8208182,58.3898182 22.8208182,56.9332273 C22.8208182,55.4779545 24.0005909,54.2968636 25.4571818,54.2968636 Z M36.0013182,54.2968636 C34.5460455,54.2968636 34.6831364,53.1170909 34.6831364,51.6605 L34.6831364,41.1176818 C34.6831364,39.6610909 34.5460455,38.4813182 36.0013182,38.4813182 C37.4565909,38.4813182 37.3195,39.6610909 37.3195,41.1176818 L37.3195,51.6605 C37.3195,53.1170909 37.4565909,54.2968636 36.0013182,54.2968636 Z M36.0013182,59.5695909 C37.4565909,59.5695909 38.6363636,60.7493636 38.6363636,62.2059545 C38.6363636,63.6612273 37.4565909,64.8423182 36.0013182,64.8423182 C34.5460455,64.8423182 33.3649545,63.6612273 33.3649545,62.2059545 C33.3649545,60.7480455 34.5447273,59.5695909 36.0013182,59.5695909 Z M46.5454545,49.0241364 C45.0901818,49.0241364 45.2272727,47.8443636 45.2272727,46.3904091 L45.2272727,35.8449545 C45.2272727,34.3896818 45.0901818,33.2085909 46.5454545,33.2085909 C48.0007273,33.2085909 47.8636364,34.3896818 47.8636364,35.8449545 L47.8636364,46.3904091 C47.8636364,47.8443636 48.0007273,49.0241364 46.5454545,49.0241364 Z M46.5454545,54.2968636 C48.0007273,54.2968636 49.1818182,55.4779545 49.1818182,56.9332273 C49.1818182,58.3898182 48.0007273,59.5695909 46.5454545,59.5695909 C45.0901818,59.5695909 43.9090909,58.3898182 43.9090909,56.9332273 C43.9090909,55.4779545 45.0901818,54.2968636 46.5454545,54.2968636 Z" id="Shape" fill="#000000" fill-rule="nonzero"></path>
            </g>
        </g>
    </g>
</svg>