<?xml version="1.0" encoding="UTF-8"?>
<svg width="72px" height="72px" viewBox="0 0 72 72" version="1.1" xmlns="http://www.w3.org/2000/svg" xmlns:xlink="http://www.w3.org/1999/xlink">
    <!-- Generator: Sketch 47.1 (45422) - http://www.bohemiancoding.com/sketch -->
    <title>icon-heavysnow</title>
    <desc>Created with Sketch.</desc>
    <defs></defs>
    <g id="__wesketch_export" stroke="none" stroke-width="1" fill="none" fill-rule="evenodd">
        <g id="icon-heavysnow">
            <g>
                <rect id="72px" x="0" y="0" width="72" height="72"></rect>
                <path d="M54.6154222,50.1684 L54.6154222,44.5217778 C57.692,42.7366667 59.7684,39.4164889 59.7684,35.6026667 C59.7684,29.9083556 55.1541778,25.2915556 49.4598667,25.2915556 C47.3950667,25.2915556 45.4849333,25.9115111 43.8738222,26.9555111 C42.2859111,20.1037778 36.1752889,14.9817333 28.8402222,14.9817333 C20.2987556,14.9817333 13.3761333,21.9056444 13.3761333,30.4471111 C13.3761333,35.0213778 15.3726222,39.1200444 18.5291111,41.9517333 L18.5291111,48.2853333 C12.3720889,44.7176889 8.22057778,38.0747556 8.22057778,30.4471111 C8.22057778,19.0584889 17.4516,9.82746667 28.8402222,9.82746667 C36.5787111,9.82746667 43.3131556,14.0962667 46.8395556,20.4002222 C47.6953778,20.2545778 48.5615111,20.136 49.4598667,20.136 C58.0013333,20.136 64.9239556,27.0612 64.9239556,35.6026667 C64.9239556,42.3319556 60.6177778,48.0443111 54.6154222,50.1684 Z M34.343213,38.1817333 C35.0559686,36.9482667 36.6309908,36.5280889 37.8644575,37.2382667 L40.6948575,38.8712889 L40.6948575,35.6039556 C40.6948575,34.1810222 41.8497019,33.0261778 43.2726352,33.0261778 C44.6955686,33.0261778 45.850413,34.1810222 45.850413,35.6039556 L45.850413,38.8712889 L48.6795241,37.2369778 C49.9129908,36.5268 51.4893019,36.9469778 52.1994797,38.1804444 C52.9122352,39.4139111 52.4894797,40.9902222 51.2573019,41.7016889 L48.4269019,43.336 L51.2573019,44.9703111 C52.4894797,45.6830667 52.9122352,47.2580889 52.1994797,48.4915556 C51.488013,49.7224444 49.9129908,50.1452 48.6795241,49.4324444 L45.850413,47.8007111 L45.850413,51.0680444 C45.850413,52.4922667 44.6955686,53.6458222 43.2726352,53.6458222 C41.8497019,53.6458222 40.6948575,52.4922667 40.6948575,51.0680444 L40.6948575,47.8007111 L37.8657463,49.4350222 C36.6322797,50.1477778 35.0559686,49.7250222 34.3445019,48.4941333 C33.6330352,47.2606667 34.0545019,45.6843556 35.2879686,44.9728889 L38.1170797,43.3372889 L35.2879686,41.7029778 C34.0545019,40.9902222 33.6330352,39.4152 34.343213,38.1817333 Z M20.3980964,43.4813374 C20.764994,42.8463988 21.5757515,42.6301084 22.2106901,42.9956791 L23.6676651,43.8362926 L23.6676651,42.154402 C23.6676651,41.4219337 24.2621322,40.8274667 24.9946005,40.8274667 C25.7270688,40.8274667 26.3215359,41.4219337 26.3215359,42.154402 L26.3215359,43.8362926 L27.7778474,42.9950156 C28.412786,42.6294449 29.224207,42.8457354 29.5897777,43.4806739 C29.9566753,44.1156125 29.7390579,44.9270335 29.1047828,45.2932676 L27.6478078,46.1345447 L29.1047828,46.9758217 C29.7390579,47.3427193 29.9566753,48.1534768 29.5897777,48.7884154 C29.2235435,49.422027 28.412786,49.6396444 27.7778474,49.2727468 L26.3215359,48.4327967 L26.3215359,50.1146873 C26.3215359,50.8478191 25.7270688,51.4416227 24.9946005,51.4416227 C24.2621322,51.4416227 23.6676651,50.8478191 23.6676651,50.1146873 L23.6676651,48.4327967 L22.2113536,49.2740737 C21.576415,49.6409714 20.764994,49.423354 20.3987599,48.7897423 C20.0325257,48.1548038 20.2494796,47.3433828 20.8844182,46.9771486 L22.3407298,46.1352081 L20.8844182,45.2939311 C20.2494796,44.9270335 20.0325257,44.116276 20.3980964,43.4813374 Z M29.3980964,54.4813374 C29.764994,53.8463988 30.5757515,53.6301084 31.2106901,53.9956791 L32.6676651,54.8362926 L32.6676651,53.154402 C32.6676651,52.4219337 33.2621322,51.8274667 33.9946005,51.8274667 C34.7270688,51.8274667 35.3215359,52.4219337 35.3215359,53.154402 L35.3215359,54.8362926 L36.7778474,53.9950156 C37.412786,53.6294449 38.224207,53.8457354 38.5897777,54.4806739 C38.9566753,55.1156125 38.7390579,55.9270335 38.1047828,56.2932676 L36.6478078,57.1345447 L38.1047828,57.9758217 C38.7390579,58.3427193 38.9566753,59.1534768 38.5897777,59.7884154 C38.2235435,60.422027 37.412786,60.6396444 36.7778474,60.2727468 L35.3215359,59.4327967 L35.3215359,61.1146873 C35.3215359,61.8478191 34.7270688,62.4416227 33.9946005,62.4416227 C33.2621322,62.4416227 32.6676651,61.8478191 32.6676651,61.1146873 L32.6676651,59.4327967 L31.2113536,60.2740737 C30.576415,60.6409714 29.764994,60.423354 29.3987599,59.7897423 C29.0325257,59.1548038 29.2494796,58.3433828 29.8844182,57.9771486 L31.3407298,57.1352081 L29.8844182,56.2939311 C29.2494796,55.9270335 29.0325257,55.116276 29.3980964,54.4813374 Z M43.0205778,45.9150667 C44.4435111,45.9150667 45.5983556,44.7602222 45.5983556,43.3372889 C45.5983556,41.9130667 44.4435111,40.7595111 43.0205778,40.7595111 C41.5976444,40.7595111 40.4428,41.9130667 40.4428,43.3372889 C40.4428,44.7589333 41.5976444,45.9150667 43.0205778,45.9150667 Z" id="Shape" fill="#000000" fill-rule="nonzero"></path>
            </g>
        </g>
    </g>
</svg>