<?xml version="1.0" encoding="UTF-8"?>
<svg width="72px" height="72px" viewBox="0 0 72 72" version="1.1" xmlns="http://www.w3.org/2000/svg" xmlns:xlink="http://www.w3.org/1999/xlink">
    <!-- Generator: Sketch 47.1 (45422) - http://www.bohemiancoding.com/sketch -->
    <title>icon-rainandsnow</title>
    <desc>Created with Sketch.</desc>
    <defs></defs>
    <g id="__wesketch_export" stroke="none" stroke-width="1" fill="none" fill-rule="evenodd">
        <g id="icon-rainandsnow">
            <g>
                <rect id="72px" x="0" y="0" width="72" height="72"></rect>
                <path d="M49.4598667,18.1385778 C48.5628,18.1385778 47.6953778,18.2571556 46.8395556,18.4028 C43.3131556,12.0975556 36.5787111,7.83004444 28.8402222,7.83004444 C17.4528889,7.83004444 8.22057778,17.0610667 8.22057778,28.4484 C8.22057778,36.1714222 12.4739111,42.8929778 18.7598222,46.4245333 C19.1155556,44.7979556 19.9095111,43.2474222 21.1739111,41.9843111 L21.2473778,41.9108444 C16.5506667,39.2544444 13.3774222,34.2252 13.3774222,28.4484 C13.3774222,19.9082222 20.3013333,12.9843111 28.8415111,12.9843111 C36.1765778,12.9843111 42.2884889,18.1063556 43.8764,24.9580889 C45.4875111,23.9140889 47.3989333,23.2941333 49.4611556,23.2941333 C55.1554667,23.2941333 59.7709778,27.9096444 59.7709778,33.6039556 C59.7709778,38.0416 56.9586222,41.8154667 53.0236444,43.2680444 C54.0392889,44.7451111 54.5625778,46.4528889 54.5986667,48.1748444 C60.6113333,46.0546222 64.9278222,40.3409778 64.9278222,33.6039556 C64.9252444,25.0624889 58.0013333,18.1385778 49.4598667,18.1385778 Z M26.2624444,42.8955556 L23.5287111,45.6292889 C22.0194222,47.1398667 22.0194222,49.5861778 23.5287111,51.0967556 C25.0392889,52.6073333 27.4868889,52.6073333 28.9961778,51.0967556 C30.5067556,49.5861778 30.5067556,47.1398667 28.9961778,45.6292889 L26.2624444,42.8955556 Z M33.9983556,55.5189333 L31.2646222,58.2526667 C29.7540444,59.7632444 29.7540444,62.2121333 31.2646222,63.7201333 C32.7739111,65.2307111 35.2215111,65.2307111 36.7308,63.7201333 C38.2413778,62.2121333 38.2413778,59.7632444 36.7308,58.2526667 L33.9983556,55.5189333 Z M33.0543241,37.4744889 C33.7670797,36.2410222 35.3421019,35.8208444 36.5755686,36.5310222 L39.4059686,38.1640444 L39.4059686,34.8967111 C39.4059686,33.4737778 40.560813,32.3189333 41.9837463,32.3189333 C43.4066797,32.3189333 44.5615241,33.4737778 44.5615241,34.8967111 L44.5615241,38.1640444 L47.3906352,36.5297333 C48.6241019,35.8195556 50.200413,36.2397333 50.9105908,37.4732 C51.6233463,38.7066667 51.2005908,40.2829778 49.968413,40.9944444 L47.138013,42.6287556 L49.968413,44.2630667 C51.2005908,44.9758222 51.6233463,46.5508444 50.9105908,47.7843111 C50.1991241,49.0152 48.6241019,49.4379556 47.3906352,48.7252 L44.5615241,47.0934667 L44.5615241,50.3608 C44.5615241,51.7850222 43.4066797,52.9385778 41.9837463,52.9385778 C40.560813,52.9385778 39.4059686,51.7850222 39.4059686,50.3608 L39.4059686,47.0934667 L36.5768575,48.7277778 C35.3433908,49.4405333 33.7670797,49.0177778 33.055613,47.7868889 C32.3441463,46.5534222 32.765613,44.9771111 33.9990797,44.2656444 L36.8281908,42.6300444 L33.9990797,40.9957333 C32.765613,40.2829778 32.3441463,38.7079556 33.0543241,37.4744889 Z M41.7316889,45.2078222 C43.1546222,45.2078222 44.3094667,44.0529778 44.3094667,42.6300444 C44.3094667,41.2058222 43.1546222,40.0522667 41.7316889,40.0522667 C40.3087556,40.0522667 39.1539111,41.2058222 39.1539111,42.6300444 C39.1539111,44.0516889 40.3087556,45.2078222 41.7316889,45.2078222 Z" id="Shape" fill="#000000" fill-rule="nonzero"></path>
            </g>
        </g>
    </g>
</svg>