<?xml version="1.0" encoding="UTF-8"?>
<svg width="72px" height="72px" viewBox="0 0 72 72" version="1.1" xmlns="http://www.w3.org/2000/svg" xmlns:xlink="http://www.w3.org/1999/xlink">
    <!-- Generator: Sketch 47.1 (45422) - http://www.bohemiancoding.com/sketch -->
    <title>icon-wind</title>
    <desc>Created with Sketch.</desc>
    <defs></defs>
    <g id="__wesketch_export" stroke="none" stroke-width="1" fill="none" fill-rule="evenodd">
        <g id="icon-wind">
            <g>
                <rect id="72px" x="0" y="0" width="72" height="72"></rect>
                <path d="M57.0895909,38.0909091 L57.0895909,38.0909091 L53.1350455,38.0909091 C51.6784545,38.0909091 50.4986818,36.9111364 50.4986818,35.4558636 C50.4986818,34.0005909 51.6784545,32.8195 53.1350455,32.8195 L57.0895909,32.8195 C58.5448636,32.8195 59.7259545,31.6384091 59.7259545,30.1844545 C59.7259545,28.7278636 58.5448636,27.5480909 57.0895909,27.5480909 C55.633,27.5480909 54.4532273,26.367 54.4532273,24.9117273 C54.4532273,23.4564545 55.633,22.2753636 57.0895909,22.2753636 C57.2701818,22.2753636 57.4468182,22.2938182 57.6195,22.3294091 C61.7335455,22.6075455 64.9960455,25.9979091 64.9960455,30.1844545 C64.9960455,34.5502727 61.4567273,38.0909091 57.0895909,38.0909091 Z M43.9077727,32.8195 L41.2714091,32.8195 L32.0467727,32.8195 L14.9117273,32.8195 C13.4564545,32.8195 12.2766818,34.0005909 12.2766818,35.4558636 C12.2766818,36.9111364 13.4564545,38.0909091 14.9117273,38.0909091 L17.5480909,38.0909091 L22.8195,38.0909091 L26.7740455,38.0909091 L32.0467727,38.0909091 L36.0013182,38.0909091 L41.2714091,38.0909091 L43.9077727,38.0909091 C48.2762273,38.0909091 51.8168636,41.6328636 51.8168636,46 C51.8168636,50.1865455 48.5543636,53.5769091 44.4403182,53.8550455 C44.2676364,53.8906364 44.091,53.9090909 43.9077727,53.9090909 C42.4525,53.9090909 41.2714091,52.728 41.2714091,51.2727273 C41.2714091,49.8161364 42.4525,48.6363636 43.9077727,48.6363636 C45.3643636,48.6363636 46.5441364,47.4552727 46.5441364,46 C46.5441364,44.5447273 45.3643636,43.3636364 43.9077727,43.3636364 L41.2714091,43.3636364 L36.0013182,43.3636364 L32.0467727,43.3636364 L26.7740455,43.3636364 L22.8195,43.3636364 L17.5480909,43.3636364 L14.9117273,43.3636364 C10.5445909,43.3636364 7.00395455,39.823 7.00395455,35.4558636 C7.00395455,31.2706364 10.2664545,27.8802727 14.3805,27.6008182 C14.5531818,27.5665455 14.7311364,27.5480909 14.9117273,27.5480909 L14.9117273,27.5480909 L32.0467727,27.5480909 L41.2714091,27.5480909 L43.9077727,27.5480909 C45.3643636,27.5480909 46.5441364,26.367 46.5441364,24.9117273 C46.5441364,23.4564545 45.3643636,22.2753636 43.9077727,22.2753636 C42.4525,22.2753636 41.2714091,21.0955909 41.2714091,19.639 C41.2714091,18.1837273 42.4525,17.0026364 43.9077727,17.0026364 C44.091,17.0026364 44.2676364,17.0224091 44.4403182,17.0566818 C48.5543636,17.3348182 51.8168636,20.7251818 51.8168636,24.9117273 C51.8168636,29.2775455 48.2762273,32.8195 43.9077727,32.8195 Z" id="Shape" fill="#000000" fill-rule="nonzero"></path>
            </g>
        </g>
    </g>
</svg>