<?xml version="1.0" encoding="UTF-8"?>
<svg width="72px" height="72px" viewBox="0 0 72 72" version="1.1" xmlns="http://www.w3.org/2000/svg" xmlns:xlink="http://www.w3.org/1999/xlink">
    <!-- Generator: Sketch 47.1 (45422) - http://www.bohemiancoding.com/sketch -->
    <title>icon-moderatesnow</title>
    <desc>Created with Sketch.</desc>
    <defs></defs>
    <g id="__wesketch_export" stroke="none" stroke-width="1" fill="none" fill-rule="evenodd">
        <g id="icon-moderatesnow">
            <g>
                <rect id="72px" x="0" y="0" width="72" height="72"></rect>
                <path d="M53.6154222,53.1684 L53.6154222,47.5217778 C56.692,45.7366667 58.7684,42.4164889 58.7684,38.6026667 C58.7684,32.9083556 54.1541778,28.2915556 48.4598667,28.2915556 C46.3950667,28.2915556 44.4849333,28.9115111 42.8738222,29.9555111 C41.2859111,23.1037778 35.1752889,17.9817333 27.8402222,17.9817333 C19.2987556,17.9817333 12.3761333,24.9056444 12.3761333,33.4471111 C12.3761333,38.0213778 14.3726222,42.1200444 17.5291111,44.9517333 L17.5291111,51.2853333 C11.3720889,47.7176889 7.22057778,41.0747556 7.22057778,33.4471111 C7.22057778,22.0584889 16.4516,12.8274667 27.8402222,12.8274667 C35.5787111,12.8274667 42.3131556,17.0962667 45.8395556,23.4002222 C46.6953778,23.2545778 47.5615111,23.136 48.4598667,23.136 C57.0013333,23.136 63.9239556,30.0612 63.9239556,38.6026667 C63.9239556,45.3319556 59.6177778,51.0443111 53.6154222,53.1684 Z M20.3980964,51.4813374 C20.764994,50.8463988 21.5757515,50.6301084 22.2106901,50.9956791 L23.6676651,51.8362926 L23.6676651,50.154402 C23.6676651,49.4219337 24.2621322,48.8274667 24.9946005,48.8274667 C25.7270688,48.8274667 26.3215359,49.4219337 26.3215359,50.154402 L26.3215359,51.8362926 L27.7778474,50.9950156 C28.412786,50.6294449 29.224207,50.8457354 29.5897777,51.4806739 C29.9566753,52.1156125 29.7390579,52.9270335 29.1047828,53.2932676 L27.6478078,54.1345447 L29.1047828,54.9758217 C29.7390579,55.3427193 29.9566753,56.1534768 29.5897777,56.7884154 C29.2235435,57.422027 28.412786,57.6396444 27.7778474,57.2727468 L26.3215359,56.4327967 L26.3215359,58.1146873 C26.3215359,58.8478191 25.7270688,59.4416227 24.9946005,59.4416227 C24.2621322,59.4416227 23.6676651,58.8478191 23.6676651,58.1146873 L23.6676651,56.4327967 L22.2113536,57.2740737 C21.576415,57.6409714 20.764994,57.423354 20.3987599,56.7897423 C20.0325257,56.1548038 20.2494796,55.3433828 20.8844182,54.9771486 L22.3407298,54.1352081 L20.8844182,53.2939311 C20.2494796,52.9270335 20.0325257,52.116276 20.3980964,51.4813374 Z M33.343213,41.1817333 C34.0559686,39.9482667 35.6309908,39.5280889 36.8644575,40.2382667 L39.6948575,41.8712889 L39.6948575,38.6039556 C39.6948575,37.1810222 40.8497019,36.0261778 42.2726352,36.0261778 C43.6955686,36.0261778 44.850413,37.1810222 44.850413,38.6039556 L44.850413,41.8712889 L47.6795241,40.2369778 C48.9129908,39.5268 50.4893019,39.9469778 51.1994797,41.1804444 C51.9122352,42.4139111 51.4894797,43.9902222 50.2573019,44.7016889 L47.4269019,46.336 L50.2573019,47.9703111 C51.4894797,48.6830667 51.9122352,50.2580889 51.1994797,51.4915556 C50.488013,52.7224444 48.9129908,53.1452 47.6795241,52.4324444 L44.850413,50.8007111 L44.850413,54.0680444 C44.850413,55.4922667 43.6955686,56.6458222 42.2726352,56.6458222 C40.8497019,56.6458222 39.6948575,55.4922667 39.6948575,54.0680444 L39.6948575,50.8007111 L36.8657463,52.4350222 C35.6322797,53.1477778 34.0559686,52.7250222 33.3445019,51.4941333 C32.6330352,50.2606667 33.0545019,48.6843556 34.2879686,47.9728889 L37.1170797,46.3372889 L34.2879686,44.7029778 C33.0545019,43.9902222 32.6330352,42.4152 33.343213,41.1817333 Z M42.0205778,48.9150667 C43.4435111,48.9150667 44.5983556,47.7602222 44.5983556,46.3372889 C44.5983556,44.9130667 43.4435111,43.7595111 42.0205778,43.7595111 C40.5976444,43.7595111 39.4428,44.9130667 39.4428,46.3372889 C39.4428,47.7589333 40.5976444,48.9150667 42.0205778,48.9150667 Z" id="Shape" fill="#000000" fill-rule="nonzero"></path>
            </g>
        </g>
    </g>
</svg>