<?xml version="1.0" encoding="UTF-8"?>
<svg width="72px" height="72px" viewBox="0 0 72 72" version="1.1" xmlns="http://www.w3.org/2000/svg" xmlns:xlink="http://www.w3.org/1999/xlink">
    <!-- Generator: Sketch 47.1 (45422) - http://www.bohemiancoding.com/sketch -->
    <title>icon-sleet</title>
    <desc>Created with Sketch.</desc>
    <defs></defs>
    <g id="__wesketch_export" stroke="none" stroke-width="1" fill="none" fill-rule="evenodd">
        <g id="icon-sleet">
            <g>
                <rect id="72px" x="0" y="0" width="72" height="72"></rect>
                <path d="M54.6154222,48.1684 L54.6154222,42.5217778 C57.692,40.7366667 59.7684,37.4164889 59.7684,33.6026667 C59.7684,27.9083556 55.1541778,23.2915556 49.4598667,23.2915556 C47.3950667,23.2915556 45.4849333,23.9115111 43.8738222,24.9555111 C42.2859111,18.1037778 36.1752889,12.9817333 28.8402222,12.9817333 C20.2987556,12.9817333 13.3761333,19.9056444 13.3761333,28.4471111 C13.3761333,33.0213778 15.3726222,37.1200444 18.5291111,39.9517333 L18.5291111,46.2853333 C12.3720889,42.7176889 8.22057778,36.0747556 8.22057778,28.4471111 C8.22057778,17.0584889 17.4516,7.82746667 28.8402222,7.82746667 C36.5787111,7.82746667 43.3131556,12.0962667 46.8395556,18.4002222 C47.6953778,18.2545778 48.5615111,18.136 49.4598667,18.136 C58.0013333,18.136 64.9239556,25.0612 64.9239556,33.6026667 C64.9239556,40.3319556 60.6177778,46.0443111 54.6154222,48.1684 Z M26.2624444,33.6039556 C27.6853778,33.6039556 28.8402222,34.7575111 28.8402222,36.1817333 L28.8402222,41.3347111 C28.8402222,42.7589333 27.6853778,43.9124889 26.2624444,43.9124889 C24.8382222,43.9124889 23.6846667,42.7589333 23.6846667,41.3347111 L23.6846667,36.1817333 C23.6846667,34.7562222 24.8382222,33.6039556 26.2624444,33.6039556 Z M26.2624444,49.0680444 C27.6853778,49.0680444 28.8402222,50.2216 28.8402222,51.6458222 L28.8402222,56.7988 C28.8402222,58.2230222 27.6853778,59.3765778 26.2624444,59.3765778 C24.8382222,59.3765778 23.6846667,58.2230222 23.6846667,56.7988 L23.6846667,51.6458222 C23.6846667,50.2203111 24.8382222,49.0680444 26.2624444,49.0680444 Z M36.5709778,54.2236 C37.9952,54.2236 39.1487556,55.3771556 39.1487556,56.7988 L39.1487556,61.9543556 C39.1487556,63.3785778 37.9952,64.5321333 36.5709778,64.5321333 C35.1480444,64.5321333 33.9957778,63.3785778 33.9957778,61.9543556 L33.9957778,56.7988 C33.9957778,55.3758667 35.1493333,54.2236 36.5709778,54.2236 Z M34.343213,36.1817333 C35.0559686,34.9482667 36.6309908,34.5280889 37.8644575,35.2382667 L40.6948575,36.8712889 L40.6948575,33.6039556 C40.6948575,32.1810222 41.8497019,31.0261778 43.2726352,31.0261778 C44.6955686,31.0261778 45.850413,32.1810222 45.850413,33.6039556 L45.850413,36.8712889 L48.6795241,35.2369778 C49.9129908,34.5268 51.4893019,34.9469778 52.1994797,36.1804444 C52.9122352,37.4139111 52.4894797,38.9902222 51.2573019,39.7016889 L48.4269019,41.336 L51.2573019,42.9703111 C52.4894797,43.6830667 52.9122352,45.2580889 52.1994797,46.4915556 C51.488013,47.7224444 49.9129908,48.1452 48.6795241,47.4324444 L45.850413,45.8007111 L45.850413,49.0680444 C45.850413,50.4922667 44.6955686,51.6458222 43.2726352,51.6458222 C41.8497019,51.6458222 40.6948575,50.4922667 40.6948575,49.0680444 L40.6948575,45.8007111 L37.8657463,47.4350222 C36.6322797,48.1477778 35.0559686,47.7250222 34.3445019,46.4941333 C33.6330352,45.2606667 34.0545019,43.6843556 35.2879686,42.9728889 L38.1170797,41.3372889 L35.2879686,39.7029778 C34.0545019,38.9902222 33.6330352,37.4152 34.343213,36.1817333 Z M43.0205778,43.9150667 C44.4435111,43.9150667 45.5983556,42.7602222 45.5983556,41.3372889 C45.5983556,39.9130667 44.4435111,38.7595111 43.0205778,38.7595111 C41.5976444,38.7595111 40.4428,39.9130667 40.4428,41.3372889 C40.4428,42.7589333 41.5976444,43.9150667 43.0205778,43.9150667 Z" id="Shape" fill="#000000" fill-rule="nonzero"></path>
            </g>
        </g>
    </g>
</svg>