<?xml version="1.0" encoding="UTF-8"?>
<svg width="72px" height="72px" viewBox="0 0 72 72" version="1.1" xmlns="http://www.w3.org/2000/svg" xmlns:xlink="http://www.w3.org/1999/xlink">
    <!-- Generator: Sketch 47.1 (45422) - http://www.bohemiancoding.com/sketch -->
    <title>icon-shower</title>
    <desc>Created with Sketch.</desc>
    <defs></defs>
    <g id="__wesketch_export" stroke="none" stroke-width="1" fill="none" fill-rule="evenodd">
        <g id="icon-shower">
            <g>
                <rect id="72px" x="0" y="0" width="72" height="72"></rect>
                <path d="M69.328,35.5226667 L63.996,35.5226667 C62.524,35.5226667 61.3293333,34.3293333 61.3293333,32.856 C61.3293333,31.384 62.524,30.1893333 63.996,30.1893333 L69.328,30.1893333 C70.8,30.1893333 71.9946667,31.384 71.9946667,32.856 C71.9946667,34.3306667 70.8013333,35.5226667 69.328,35.5226667 Z M58.8533333,17.7733333 C57.812,18.8146667 56.124,18.8146667 55.0826667,17.7733333 C54.0413333,16.7333333 54.0413333,15.044 55.0826667,14.0026667 L58.8533333,10.232 C59.8946667,9.192 61.5826667,9.192 62.624,10.232 C63.6653333,11.2733333 63.6653333,12.9626667 62.624,14.0026667 L58.8533333,17.7733333 Z M54.9226667,38.584 L54.9226667,38.584 C57.2533333,41.3626667 58.6626667,44.944 58.6626667,48.8546667 L58.6626667,48.8546667 C58.6626667,57.6906667 51.5013333,64.852 42.6653333,64.852 C42.3106667,64.852 41.8466667,64.852 41.332,64.852 C41.332,63.024 40.9066667,61.196 40.0746667,59.5213333 C41.1106667,59.5213333 42.0093333,59.5213333 42.6653333,59.5213333 C48.556,59.5213333 53.3306667,54.7453333 53.3306667,48.8546667 C53.3306667,42.964 48.556,38.1906667 42.6653333,38.1906667 C40.5306667,38.1906667 38.5533333,38.8306667 36.8866667,39.912 C35.2453333,32.8213333 28.9226667,27.524 21.3346667,27.524 C12.4986667,27.524 5.33733333,34.6866667 5.33733333,43.5213333 C5.33733333,45.396 5.676,47.1853333 6.26666667,48.8546667 L6.26,48.8546667 C8.176,54.2586667 12.9093333,58.3266667 18.7013333,59.2866667 C17.852,60.9066667 17.4093333,62.6826667 17.352,64.4693333 C9.224,62.9333333 2.73333333,56.7893333 0.688,48.8546667 L0.702666667,48.8546667 C0.262666667,47.1493333 0.004,45.368 0.004,43.5213333 C0.004,31.7426667 9.55333333,22.192 21.3346667,22.192 C23.4306667,22.192 25.4533333,22.5 27.3653333,23.064 C30.292,19.2946667 34.8546667,16.8586667 39.9986667,16.8586667 C48.8346667,16.8586667 55.996,24.02 55.996,32.856 C55.996,34.8773333 55.6066667,36.8026667 54.9226667,38.584 Z M39.9986667,22.192 C37.048,22.192 34.3786667,23.3893333 32.4493333,25.3253333 C35.5693333,27.2386667 38.1626667,29.928 39.9546667,33.1306667 C40.84,32.98 41.736,32.8573333 42.6653333,32.8573333 C45.4986667,32.8573333 48.156,33.6026667 50.4653333,34.8933333 L50.4653333,34.8933333 C50.5933333,34.2346667 50.664,33.5546667 50.664,32.8573333 C50.664,26.9653333 45.8893333,22.192 39.9986667,22.192 Z M39.9986667,11.5253333 C38.5266667,11.5253333 37.332,10.332 37.332,8.85866667 L37.332,3.52666667 C37.332,2.05466667 38.5266667,0.861333333 39.9986667,0.861333333 C41.4706667,0.861333333 42.6653333,2.05466667 42.6653333,3.52666667 L42.6653333,8.85866667 C42.6653333,10.3333333 41.472,11.5253333 39.9986667,11.5253333 Z M21.144,17.7733333 L17.3733333,14.0026667 C16.332,12.9626667 16.332,11.2733333 17.3733333,10.232 C18.4146667,9.192 20.1026667,9.192 21.144,10.232 L24.9146667,14.0026667 C25.956,15.044 25.956,16.7333333 24.9146667,17.7733333 C23.8733333,18.8146667 22.1866667,18.8146667 21.144,17.7733333 Z M29.3333333,55.4266667 L34.0466667,60.14 C36.6493333,62.7413333 36.6493333,66.9626667 34.0466667,69.564 C31.444,72.168 27.2226667,72.168 24.62,69.564 C22.0173333,66.9626667 22.0173333,62.7413333 24.62,60.14 L29.3333333,55.4266667 Z" id="Shape" fill="#000000" fill-rule="nonzero"></path>
            </g>
        </g>
    </g>
</svg>