<?xml version="1.0" encoding="UTF-8"?>
<svg width="72px" height="72px" viewBox="0 0 72 72" version="1.1" xmlns="http://www.w3.org/2000/svg" xmlns:xlink="http://www.w3.org/1999/xlink">
    <!-- Generator: Sketch 47.1 (45422) - http://www.bohemiancoding.com/sketch -->
    <title>icon-thunderstormandhail</title>
    <desc>Created with Sketch.</desc>
    <defs></defs>
    <g id="__wesketch_export" stroke="none" stroke-width="1" fill="none" fill-rule="evenodd">
        <g id="icon-thunderstormandhail">
            <g>
                <rect id="72px" x="0" y="0" width="72" height="72"></rect>
                <path d="M49.1800205,49.1791818 C48.8108876,49.1791818 48.3244232,49.1791818 47.7799523,49.1791818 L52.5061712,43.3633636 C56.6997841,41.9700455 59.7266735,38.0207727 59.7266735,33.361 C59.7266735,27.5372727 55.0057279,22.8181818 49.1813388,22.8181818 C47.0706899,22.8181818 45.1169224,23.4509091 43.4690078,24.5186364 C41.8448233,17.5111818 35.5932947,12.2727273 28.0906694,12.2727273 C19.355404,12.2727273 12.2733265,19.354 12.2733265,28.0909091 C12.2733265,35.2697273 17.061507,41.3228182 23.6162518,43.2552727 L21.8378225,48.2340455 C13.2423003,45.57 7,37.5594091 7,28.0895909 C7,16.4434545 16.4432095,7 28.0906694,7 C36.0059325,7 42.8942153,11.3658182 46.5011706,17.8143636 C47.3765428,17.6640909 48.26378,17.5441364 49.1813388,17.5441364 C57.9179225,17.5441364 65,24.6240909 65,33.3596818 C65,42.0952727 57.9166042,49.1791818 49.1800205,49.1791818 Z M38.438036,33.3636364 L48.5788143,33.3636364 L42.4941445,43.5052906 L49.593095,43.5052906 L36.4094746,59.7299091 L40.0608851,47.5619523 L33.3666326,47.5619523 L38.438036,33.3636364 Z M28.0967521,54.4519091 C26.641314,54.4519091 26.7784204,53.2721364 26.7784204,51.8181818 L26.7784204,41.2727273 C26.7784204,39.8174545 26.641314,38.6363636 28.0967521,38.6363636 C29.5521902,38.6363636 29.4150837,39.8174545 29.4150837,41.2727273 L29.4150837,51.8181818 C29.4150837,53.2721364 29.5521902,54.4519091 28.0967521,54.4519091 Z M28.0933061,59.7272727 C29.5487442,59.7272727 30.728651,60.9083636 30.728651,62.3636364 C30.728651,63.8202273 29.5487442,65 28.0933061,65 C26.6378679,65 25.4566428,63.8202273 25.4566428,62.3636364 C25.4566428,60.9083636 26.6365496,59.7272727 28.0933061,59.7272727 Z" id="Shape" fill="#000000" fill-rule="nonzero"></path>
            </g>
        </g>
    </g>
</svg>