<?xml version="1.0" encoding="UTF-8"?>
<svg width="72px" height="72px" viewBox="0 0 72 72" version="1.1" xmlns="http://www.w3.org/2000/svg" xmlns:xlink="http://www.w3.org/1999/xlink">
    <!-- Generator: Sketch 47.1 (45422) - http://www.bohemiancoding.com/sketch -->
    <title>icon-thunderstorm</title>
    <desc>Created with Sketch.</desc>
    <defs></defs>
    <g id="__wesketch_export" stroke="none" stroke-width="1" fill="none" fill-rule="evenodd">
        <g id="icon-thunderstorm">
            <g>
                <rect id="72px" x="0" y="0" width="72" height="72"></rect>
                <path d="M49.1800205,49.1830166 C48.8108876,49.1830166 48.3244232,49.1830166 47.7799523,49.1830166 L52.5061712,43.3666697 C56.6997841,41.9732248 59.7266735,38.0235931 59.7266735,33.3633967 C59.7266735,27.5391399 55.0057279,22.81962 49.1813388,22.81962 C47.0706899,22.81962 45.1169224,23.4524048 43.4690078,24.5202291 C41.8448233,17.5121375 35.5932947,12.2732067 28.0906694,12.2732067 C19.355404,12.2732067 12.2733265,19.3551232 12.2733265,28.0928266 C12.2733265,35.2722975 17.061507,41.3259387 23.6162518,43.258569 L21.8378225,48.2377943 C13.2423003,45.5735067 7,37.5621875 7,28.0915083 C7,16.4443131 16.4432095,7 28.0906694,7 C36.0059325,7 42.8942153,11.3662151 46.5011706,17.8153468 C47.3765428,17.6650605 48.26378,17.545095 49.1813388,17.545095 C57.9179225,17.545095 65,24.6256932 65,33.3620784 C65,42.0984635 57.9166042,49.1830166 49.1800205,49.1830166 Z M33.3626776,30.7267933 L46.5433572,30.7267933 L38.6346858,43.90981 L47.8616888,43.90981 L30.7260143,65 L35.4720082,49.1830166 L26.7710194,49.1830166 L33.3626776,30.7267933 Z" id="Shape" fill="#000000" fill-rule="nonzero"></path>
            </g>
        </g>
    </g>
</svg>