<?xml version="1.0" encoding="UTF-8"?>
<svg width="72px" height="72px" viewBox="0 0 72 72" version="1.1" xmlns="http://www.w3.org/2000/svg" xmlns:xlink="http://www.w3.org/1999/xlink">
    <!-- Generator: Sketch 47.1 (45422) - http://www.bohemiancoding.com/sketch -->
    <title>icon-blizzard</title>
    <desc>Created with Sketch.</desc>
    <defs></defs>
    <g id="__wesketch_export" stroke="none" stroke-width="1" fill="none" fill-rule="evenodd">
        <g id="icon-blizzard">
            <g>
                <rect id="72px" x="0" y="0" width="72" height="72"></rect>
                <path d="M54.6154222,48.1684 L54.6154222,42.5217778 C57.692,40.7366667 59.7684,37.4164889 59.7684,33.6026667 C59.7684,27.9083556 55.1541778,23.2915556 49.4598667,23.2915556 C47.3950667,23.2915556 45.4849333,23.9115111 43.8738222,24.9555111 C42.2859111,18.1037778 36.1752889,12.9817333 28.8402222,12.9817333 C20.2987556,12.9817333 13.3761333,19.9056444 13.3761333,28.4471111 C13.3761333,33.0213778 15.3726222,37.1200444 18.5291111,39.9517333 L18.5291111,46.2853333 C12.3720889,42.7176889 8.22057778,36.0747556 8.22057778,28.4471111 C8.22057778,17.0584889 17.4516,7.82746667 28.8402222,7.82746667 C36.5787111,7.82746667 43.3131556,12.0962667 46.8395556,18.4002222 C47.6953778,18.2545778 48.5615111,18.136 49.4598667,18.136 C58.0013333,18.136 64.9239556,25.0612 64.9239556,33.6026667 C64.9239556,40.3319556 60.6177778,46.0443111 54.6154222,48.1684 Z M34.343213,36.1817333 C35.0559686,34.9482667 36.6309908,34.5280889 37.8644575,35.2382667 L40.6948575,36.8712889 L40.6948575,33.6039556 C40.6948575,32.1810222 41.8497019,31.0261778 43.2726352,31.0261778 C44.6955686,31.0261778 45.850413,32.1810222 45.850413,33.6039556 L45.850413,36.8712889 L48.6795241,35.2369778 C49.9129908,34.5268 51.4893019,34.9469778 52.1994797,36.1804444 C52.9122352,37.4139111 52.4894797,38.9902222 51.2573019,39.7016889 L48.4269019,41.336 L51.2573019,42.9703111 C52.4894797,43.6830667 52.9122352,45.2580889 52.1994797,46.4915556 C51.488013,47.7224444 49.9129908,48.1452 48.6795241,47.4324444 L45.850413,45.8007111 L45.850413,49.0680444 C45.850413,50.4922667 44.6955686,51.6458222 43.2726352,51.6458222 C41.8497019,51.6458222 40.6948575,50.4922667 40.6948575,49.0680444 L40.6948575,45.8007111 L37.8657463,47.4350222 C36.6322797,48.1477778 35.0559686,47.7250222 34.3445019,46.4941333 C33.6330352,45.2606667 34.0545019,43.6843556 35.2879686,42.9728889 L38.1170797,41.3372889 L35.2879686,39.7029778 C34.0545019,38.9902222 33.6330352,37.4152 34.343213,36.1817333 Z M23.3980964,33.4813374 C23.764994,32.8463988 24.5757515,32.6301084 25.2106901,32.9956791 L26.6676651,33.8362926 L26.6676651,32.154402 C26.6676651,31.4219337 27.2621322,30.8274667 27.9946005,30.8274667 C28.7270688,30.8274667 29.3215359,31.4219337 29.3215359,32.154402 L29.3215359,33.8362926 L30.7778474,32.9950156 C31.412786,32.6294449 32.224207,32.8457354 32.5897777,33.4806739 C32.9566753,34.1156125 32.7390579,34.9270335 32.1047828,35.2932676 L30.6478078,36.1345447 L32.1047828,36.9758217 C32.7390579,37.3427193 32.9566753,38.1534768 32.5897777,38.7884154 C32.2235435,39.422027 31.412786,39.6396444 30.7778474,39.2727468 L29.3215359,38.4327967 L29.3215359,40.1146873 C29.3215359,40.8478191 28.7270688,41.4416227 27.9946005,41.4416227 C27.2621322,41.4416227 26.6676651,40.8478191 26.6676651,40.1146873 L26.6676651,38.4327967 L25.2113536,39.2740737 C24.576415,39.6409714 23.764994,39.423354 23.3987599,38.7897423 C23.0325257,38.1548038 23.2494796,37.3433828 23.8844182,36.9771486 L25.3407298,36.1352081 L23.8844182,35.2939311 C23.2494796,34.9270335 23.0325257,34.116276 23.3980964,33.4813374 Z M41.3980964,56.4813374 C41.764994,55.8463988 42.5757515,55.6301084 43.2106901,55.9956791 L44.6676651,56.8362926 L44.6676651,55.154402 C44.6676651,54.4219337 45.2621322,53.8274667 45.9946005,53.8274667 C46.7270688,53.8274667 47.3215359,54.4219337 47.3215359,55.154402 L47.3215359,56.8362926 L48.7778474,55.9950156 C49.412786,55.6294449 50.224207,55.8457354 50.5897777,56.4806739 C50.9566753,57.1156125 50.7390579,57.9270335 50.1047828,58.2932676 L48.6478078,59.1345447 L50.1047828,59.9758217 C50.7390579,60.3427193 50.9566753,61.1534768 50.5897777,61.7884154 C50.2235435,62.422027 49.412786,62.6396444 48.7778474,62.2727468 L47.3215359,61.4327967 L47.3215359,63.1146873 C47.3215359,63.8478191 46.7270688,64.4416227 45.9946005,64.4416227 C45.2621322,64.4416227 44.6676651,63.8478191 44.6676651,63.1146873 L44.6676651,61.4327967 L43.2113536,62.2740737 C42.576415,62.6409714 41.764994,62.423354 41.3987599,61.7897423 C41.0325257,61.1548038 41.2494796,60.3433828 41.8844182,59.9771486 L43.3407298,59.1352081 L41.8844182,58.2939311 C41.2494796,57.9270335 41.0325257,57.116276 41.3980964,56.4813374 Z M43.0205778,43.9150667 C44.4435111,43.9150667 45.5983556,42.7602222 45.5983556,41.3372889 C45.5983556,39.9130667 44.4435111,38.7595111 43.0205778,38.7595111 C41.5976444,38.7595111 40.4428,39.9130667 40.4428,41.3372889 C40.4428,42.7589333 41.5976444,43.9150667 43.0205778,43.9150667 Z M14.5654352,48.9830222 C15.2781908,47.7495556 16.853213,47.3293778 18.0866797,48.0395556 L20.9170797,49.6725778 L20.9170797,46.4052444 C20.9170797,44.9823111 22.0719241,43.8274667 23.4948575,43.8274667 C24.9177908,43.8274667 26.0726352,44.9823111 26.0726352,46.4052444 L26.0726352,49.6725778 L28.9017463,48.0382667 C30.135213,47.3280889 31.7115241,47.7482667 32.4217019,48.9817333 C33.1344575,50.2152 32.7117019,51.7915111 31.4795241,52.5029778 L28.6491241,54.1372889 L31.4795241,55.7716 C32.7117019,56.4843556 33.1344575,58.0593778 32.4217019,59.2928444 C31.7102352,60.5237333 30.135213,60.9464889 28.9017463,60.2337333 L26.0726352,58.602 L26.0726352,61.8693333 C26.0726352,63.2935556 24.9177908,64.4471111 23.4948575,64.4471111 C22.0719241,64.4471111 20.9170797,63.2935556 20.9170797,61.8693333 L20.9170797,58.602 L18.0879686,60.2363111 C16.8545019,60.9490667 15.2781908,60.5263111 14.5667241,59.2954222 C13.8552575,58.0619556 14.2767241,56.4856444 15.5101908,55.7741778 L18.3393019,54.1385778 L15.5101908,52.5042667 C14.2767241,51.7915111 13.8552575,50.2164889 14.5654352,48.9830222 Z M22.7983556,56.9830222 C24.2212889,56.9830222 25.3761333,55.8281778 25.3761333,54.4052444 C25.3761333,52.9810222 24.2212889,51.8274667 22.7983556,51.8274667 C21.3754222,51.8274667 20.2205778,52.9810222 20.2205778,54.4052444 C20.2205778,55.8268889 21.3754222,56.9830222 22.7983556,56.9830222 Z" id="Shape" fill="#000000" fill-rule="nonzero"></path>
            </g>
        </g>
    </g>
</svg>