<?xml version="1.0" encoding="UTF-8"?>
<svg width="72px" height="72px" viewBox="0 0 72 72" version="1.1" xmlns="http://www.w3.org/2000/svg" xmlns:xlink="http://www.w3.org/1999/xlink">
    <!-- Generator: Sketch 47.1 (45422) - http://www.bohemiancoding.com/sketch -->
    <title>icon-ash</title>
    <desc>Created with Sketch.</desc>
    <defs></defs>
    <g id="__wesketch_export" stroke="none" stroke-width="1" fill="none" fill-rule="evenodd">
        <g id="icon-ash">
            <g>
                <rect id="72px" x="0" y="0" width="72" height="72"></rect>
                <path d="M62.361,52.0267727 L9.64031818,52.0267727 C8.18504545,52.0267727 7.00395455,50.8456818 7.00395455,49.3904091 C7.00395455,47.9338182 8.18504545,46.7540455 9.64031818,46.7540455 L62.361,46.7540455 C63.8162727,46.7540455 64.9973636,47.9338182 64.9973636,49.3904091 C64.9973636,50.8443636 63.8175909,52.0267727 62.361,52.0267727 Z M62.361,41.4813182 L9.64031818,41.4813182 C8.18504545,41.4813182 7.00395455,40.3015455 7.00395455,38.8449545 C7.00395455,37.3896818 8.18504545,36.2085909 9.64031818,36.2085909 L62.361,36.2085909 C63.8162727,36.2085909 64.9973636,37.3896818 64.9973636,38.8449545 C64.9973636,40.3015455 63.8175909,41.4813182 62.361,41.4813182 Z M49.1805,25.6657727 C47.0700909,25.6657727 45.1165455,26.2985 43.4688182,27.3675455 C41.8448182,20.3587727 35.594,15.1203182 28.0922273,15.1203182 C19.3579545,15.1203182 12.2766818,22.2029091 12.2766818,30.9385 L7.00395455,30.9385 C7.00395455,19.2923636 16.4460909,9.84890909 28.0922273,9.84890909 C36.0065909,9.84890909 42.8940909,14.2147273 46.5006364,20.6632727 C47.3759091,20.5143182 48.2630455,20.3930455 49.1805,20.3930455 C56.0640455,20.3930455 61.9035909,24.7984091 64.0772727,30.9385 L58.3023182,30.9385 C56.4779545,27.7880455 53.081,25.6657727 49.1805,25.6657727 Z M9.64031818,57.2968636 L62.361,57.2968636 C63.8162727,57.2968636 64.9973636,58.4779545 64.9973636,59.9332273 C64.9973636,61.3898182 63.8162727,62.5695909 62.361,62.5695909 L9.64031818,62.5695909 C8.18504545,62.5695909 7.00395455,61.3898182 7.00395455,59.9332273 C7.00395455,58.4779545 8.18372727,57.2968636 9.64031818,57.2968636 Z" id="Shape" fill="#000000" fill-rule="nonzero"></path>
            </g>
        </g>
    </g>
</svg>