<?xml version="1.0" encoding="UTF-8"?>
<svg width="72px" height="72px" viewBox="0 0 72 72" version="1.1" xmlns="http://www.w3.org/2000/svg" xmlns:xlink="http://www.w3.org/1999/xlink">
    <!-- Generator: Sketch 47.1 (45422) - http://www.bohemiancoding.com/sketch -->
    <title>icon-typhoon</title>
    <desc>Created with Sketch.</desc>
    <defs></defs>
    <g id="__wesketch_export" stroke="none" stroke-width="1" fill="none" fill-rule="evenodd">
        <g id="icon-typhoon">
            <g>
                <rect id="72px" x="0" y="0" width="72" height="72"></rect>
                <path d="M55.866,21.459 L17.871,21.459 C16.767,21.459 15.871,20.563 15.871,19.46 C15.871,18.356 16.767,17.46 17.871,17.46 L55.866,17.46 C56.97,17.46 57.866,18.356 57.866,19.46 C57.866,20.563 56.971,21.459 55.866,21.459 Z M19.871,25.459 L49.867,25.459 C50.971,25.459 51.867,26.355 51.867,27.459 C51.867,28.563 50.971,29.458 49.867,29.458 L19.871,29.458 C18.767,29.458 17.871,28.562 17.871,27.459 C17.871,26.354 18.767,25.459 19.871,25.459 Z M31.869,33.458 L53.867,33.458 C54.971,33.458 55.866,34.354 55.866,35.457 C55.866,36.561 54.971,37.457 53.867,37.457 L31.869,37.457 C30.765,37.457 29.87,36.561 29.87,35.457 C29.87,34.354 30.765,33.458 31.869,33.458 Z M33.869,49.456 L39.868,49.456 C40.972,49.456 41.868,50.352 41.868,51.455 C41.868,52.559 40.972,53.455 39.868,53.455 L33.869,53.455 C32.765,53.455 31.869,52.559 31.869,51.455 C31.869,50.352 32.765,49.456 33.869,49.456 Z M34.869,43.456 C34.869,42.352 35.765,41.457 36.869,41.457 L50.867,41.457 C51.971,41.457 52.867,42.353 52.867,43.456 C52.867,44.56 51.971,45.456 50.867,45.456 L36.869,45.456 C35.765,45.456 34.869,44.561 34.869,43.456 Z" id="Shape" fill="#000000" fill-rule="nonzero"></path>
            </g>
        </g>
    </g>
</svg>