<?xml version="1.0" encoding="UTF-8"?>
<svg width="72px" height="72px" viewBox="0 0 72 72" version="1.1" xmlns="http://www.w3.org/2000/svg" xmlns:xlink="http://www.w3.org/1999/xlink">
    <!-- Generator: Sketch 47.1 (45422) - http://www.bohemiancoding.com/sketch -->
    <title>icon-overcast</title>
    <desc>Created with Sketch.</desc>
    <defs></defs>
    <g id="__wesketch_export" stroke="none" stroke-width="1" fill="none" fill-rule="evenodd">
        <g id="icon-overcast">
            <g>
                <rect id="72px" x="0" y="0" width="72" height="72"></rect>
                <path d="M28.8402222,57.0680444 C17.4528889,57.0680444 8.22057778,47.8370222 8.22057778,36.4484 C8.22057778,25.0597778 17.4528889,15.8287556 28.8402222,15.8287556 C36.5787111,15.8287556 43.3131556,20.0975556 46.8395556,26.4015111 C47.6953778,26.2558667 48.5640889,26.1372889 49.4598667,26.1372889 C58.0013333,26.1372889 64.9252444,33.0624889 64.9252444,41.6039556 C64.9252444,50.1428444 58.0013333,57.0680444 49.4598667,57.0680444 C45.8832,57.0680444 32.9620889,57.0680444 28.8402222,57.0680444 Z M49.4598667,51.9124889 C55.1541778,51.9124889 59.7709778,47.2956889 59.7709778,41.6039556 C59.7709778,35.9096444 55.1541778,31.2928444 49.4598667,31.2928444 C47.3976444,31.2928444 45.4875111,31.9128 43.8751111,32.9568 C42.2884889,26.1050667 36.1752889,20.9830222 28.8402222,20.9830222 C20.3000444,20.9830222 13.3761333,27.9069333 13.3761333,36.4484 C13.3761333,44.9885778 20.3000444,51.9124889 28.8402222,51.9124889 C33.5021333,51.9124889 45.5687111,51.9124889 49.4598667,51.9124889 Z" id="Shape" fill="#000000" fill-rule="nonzero"></path>
            </g>
        </g>
    </g>
</svg>