<?xml version="1.0" encoding="UTF-8"?>
<svg width="48px" height="48px" viewBox="0 0 48 48" version="1.1" xmlns="http://www.w3.org/2000/svg" xmlns:xlink="http://www.w3.org/1999/xlink">
    <!-- Generator: Sketch 48.1 (47250) - http://www.bohemiancoding.com/sketch -->
    <title>icon-weibo</title>
    <desc>Created with Sketch.</desc>
    <defs></defs>
    <g id="newtab-terms-of-use" stroke="none" stroke-width="1" fill="none" fill-rule="evenodd" transform="translate(-441.000000, -739.000000)">
        <g id="icon-weibo" transform="translate(441.000000, 739.000000)">
            <circle id="Oval-4" fill="#E6162D" cx="24" cy="24" r="24"></circle>
            <g id="CN_sina_weibo" transform="translate(5.000000, 9.000000)" fill="#FFFFFF">
                <path d="M37.539,13.806 C37.539,13.808 37.539,13.81 37.539,13.812 C37.297,14.556 36.498,14.964 35.754,14.723 C35.008,14.482 34.6,13.683 34.841,12.937 L34.84,12.937 C35.58,10.646 35.111,8.033 33.384,6.117 C31.656,4.201 29.108,3.47 26.753,3.97 C25.987,4.133 25.234,3.644 25.071,2.878 C24.907,2.114 25.395,1.36 26.161,1.195 L26.162,1.195 C29.472,0.491 33.058,1.519 35.489,4.217 C37.921,6.911 38.577,10.584 37.539,13.806 Z M27.721,8.506 L27.721,8.505 C27.064,8.648 26.415,8.226 26.274,7.568 C26.133,6.908 26.553,6.259 27.212,6.119 C28.825,5.775 30.572,6.274 31.756,7.588 C32.941,8.901 33.259,10.69 32.752,12.26 C32.545,12.902 31.857,13.252 31.216,13.047 C30.574,12.839 30.224,12.15 30.431,11.509 L30.429,11.509 C30.678,10.741 30.522,9.866 29.943,9.224 C29.365,8.583 28.51,8.34 27.721,8.506 Z M28.21,10.79 C28.851,11.706 28.789,12.99 28.198,14.478 C27.925,15.163 28.283,15.269 28.804,15.426 C30.927,16.084 33.291,17.678 33.291,20.485 C33.291,25.132 26.594,30.985 16.526,30.985 C8.847,30.985 0.997,27.261 0.997,21.135 C0.997,17.933 3.025,14.23 6.516,10.736 C11.179,6.072 16.616,3.947 18.661,5.994 C19.563,6.896 19.65,8.458 19.07,10.323 C18.768,11.262 19.951,10.742 19.951,10.744 C23.72,9.165 27.008,9.072 28.21,10.79 Z M26.923,20.401 C26.526,16.377 21.236,13.605 15.107,14.211 C8.98,14.818 4.333,18.572 4.731,22.597 C5.129,26.623 10.419,29.394 16.547,28.789 C22.676,28.183 27.32,24.428 26.923,20.401 Z M12.584,27.06 C9.638,26.108 8.391,23.198 9.681,20.576 C10.948,18.005 14.243,16.551 17.159,17.31 C20.177,18.09 21.717,20.939 20.484,23.705 C19.233,26.536 15.636,28.045 12.584,27.06 Z M14.248,21.549 C13.299,21.151 12.073,21.56 11.487,22.479 C10.894,23.402 11.173,24.501 12.115,24.93 C13.071,25.367 14.34,24.952 14.933,24.006 C15.515,23.05 15.208,21.958 14.248,21.549 Z M16.587,20.579 C16.223,20.434 15.768,20.609 15.554,20.968 C15.347,21.328 15.461,21.738 15.826,21.888 C16.197,22.041 16.671,21.865 16.885,21.498 C17.09,21.129 16.957,20.714 16.587,20.579 Z" id="Shape"></path>
            </g>
        </g>
    </g>
</svg>