<?xml version="1.0" encoding="UTF-8"?>
<svg width="12px" height="12px" viewBox="0 0 12 12" version="1.1" xmlns="http://www.w3.org/2000/svg" xmlns:xlink="http://www.w3.org/1999/xlink">
    <!-- Generator: Sketch 47.1 (45422) - http://www.bohemiancoding.com/sketch -->
    <title>icon-扩展</title>
    <desc>Created with Sketch.</desc>
    <defs></defs>
    <g id="__wesketch_export" stroke="none" stroke-width="1" fill="none" fill-rule="evenodd">
        <g id="icon-扩展" fill-rule="nonzero" fill="#FFFFFF">
            <g id="Shape">
                <path d="M10.5694632,5.71440077 L9.71269318,5.71440077 L9.71269318,3.42967608 C9.71269318,2.79851741 9.20148258,2.28730682 8.57032392,2.28730682 L6.28558541,2.28730682 L6.28558541,1.4305368 C6.28558541,0.642300622 5.64586692,0.00258213514 4.85763074,0.00258213514 C4.06939457,0.00258213514 3.42967608,0.642300622 3.42967608,1.4305368 L3.42967608,2.28730682 L1.14495139,2.28730682 C0.513792716,2.28730682 0.00829328378,2.79851742 0.00829328378,3.42967608 L0.0054307973,5.60016384 L0.859352162,5.60016384 C1.71041104,5.60016384 2.40154374,6.29129654 2.40154374,7.14235542 C2.40154374,7.9934143 1.71041104,8.684547 0.859352162,8.684547 L0.00544463514,8.68454701 L0.00258214865,10.8550348 C0.00258214865,11.4861934 0.513792743,11.997404 1.14495141,11.997404 L3.31543916,11.997404 L3.31543916,11.140634 C3.31543916,10.2895751 4.00657186,9.59844242 4.85763074,9.59844242 C5.70868962,9.59844242 6.39982232,10.2895751 6.39982232,11.140634 L6.39982232,11.997404 L8.57031008,11.997404 C9.20146876,11.997404 9.71267934,11.4861934 9.71267934,10.8550348 L9.71267934,8.57032392 L10.5694494,8.57032392 C11.3576855,8.57032392 11.997404,7.93060543 11.997404,7.14236926 C11.997404,6.35413308 11.3576855,5.71440077 10.5694632,5.71440077 Z"></path>
            </g>
        </g>
    </g>
</svg>