<?xml version="1.0" encoding="UTF-8"?>
<svg width="48px" height="48px" viewBox="0 0 48 48" version="1.1" xmlns="http://www.w3.org/2000/svg" xmlns:xlink="http://www.w3.org/1999/xlink">
    <!-- Generator: Sketch 48.1 (47250) - http://www.bohemiancoding.com/sketch -->
    <title>icon-weixin</title>
    <desc>Created with Sketch.</desc>
    <defs></defs>
    <g id="newtab-terms-of-use" stroke="none" stroke-width="1" fill="none" fill-rule="evenodd" transform="translate(-525.000000, -739.000000)">
        <g id="icon-weixin" transform="translate(525.000000, 739.000000)">
            <circle id="Oval-4" fill="#51C332" cx="24" cy="24" r="24"></circle>
            <g id="CN_tencent_wechat" transform="translate(6.000000, 9.000000)" fill="#FFFFFF">
                <path d="M32.399,25.866 L33.384,29.018 L29.793,27.124 C28.483,27.44 27.168,27.755 25.865,27.755 C19.636,27.755 14.731,23.656 14.731,18.609 C14.731,13.568 19.636,9.459 25.865,9.459 C31.747,9.459 36.984,13.568 36.984,18.609 C36.984,21.451 35.026,23.968 32.399,25.866 Z M22.256,14.509 C21.604,14.509 20.947,15.142 20.947,15.769 C20.947,16.407 21.604,17.031 22.256,17.031 C23.246,17.031 23.893,16.407 23.893,15.769 C23.893,15.142 23.246,14.509 22.256,14.509 Z M29.456,14.509 C28.809,14.509 28.155,15.142 28.155,15.769 C28.155,16.407 28.809,17.031 29.456,17.031 C30.437,17.031 31.094,16.407 31.094,15.769 C31.094,15.142 30.437,14.509 29.456,14.509 Z M13.908,18.76 C13.908,19.675 14.056,20.558 14.312,21.401 C13.908,21.432 13.501,21.451 13.09,21.451 C11.456,21.451 10.142,21.13 8.504,20.819 L3.929,23.028 L5.238,19.237 C1.96,17.031 0.001,14.187 0.001,10.726 C0.001,4.728 5.894,0.004 13.09,0.004 C19.527,0.004 25.165,3.778 26.298,8.856 C25.881,8.812 25.461,8.783 25.037,8.783 C18.818,8.783 13.908,13.252 13.908,18.76 Z M8.837,5.365 C7.856,5.365 6.866,5.989 6.866,6.938 C6.866,7.883 7.856,8.516 8.837,8.516 C9.819,8.516 10.471,7.883 10.471,6.938 C10.471,5.989 9.819,5.365 8.837,5.365 Z M17.998,5.365 C17.017,5.365 16.034,5.989 16.034,6.938 C16.034,7.883 17.017,8.516 17.998,8.516 C18.984,8.516 19.636,7.883 19.636,6.938 C19.636,5.989 18.984,5.365 17.998,5.365 Z" id="Shape"></path>
            </g>
        </g>
    </g>
</svg>