<?xml version="1.0" encoding="UTF-8"?>
<svg width="24px" height="24px" viewBox="0 0 24 24" version="1.1" xmlns="http://www.w3.org/2000/svg" xmlns:xlink="http://www.w3.org/1999/xlink">
    <!-- Generator: Sketch 47.1 (45422) - http://www.bohemiancoding.com/sketch -->
    <title>icon-设置</title>
    <desc>Created with Sketch.</desc>
    <defs></defs>
    <g id="__wesketch_export" stroke="none" stroke-width="1" fill="none" fill-rule="evenodd">
        <g id="icon-设置" fill-rule="nonzero" fill="#FFFFFF">
            <g id="Shape">
                <path d="M20.1567641,12.6805092 L21.9051337,14.0609117 C22.2951789,14.3836715 22.389799,14.9198522 22.144838,15.3424887 L20.2745136,18.6184476 C20.0957867,18.9285914 19.7656676,19.1199343 19.4124191,19.1199343 C19.2883616,19.1199343 19.1674581,19.0978563 19.0518113,19.0526489 L16.9880413,18.2115811 C16.6106121,18.4828255 16.2153103,18.7141191 15.8084438,18.905462 L15.4972487,21.1237782 C15.4205013,21.6126489 14.998916,21.9753593 14.5131994,21.9753593 L10.7662425,21.9753593 C10.2752692,21.9753593 9.86209469,21.6210595 9.78534725,21.1321889 L9.47310085,18.9044107 C9.06728565,18.7151704 8.6719838,18.4828255 8.29350331,18.2115811 L6.23498996,19.0484435 C5.76714602,19.2345298 5.24673534,19.0347762 5.00808237,18.619499 L3.13355259,15.3393347 C2.88964294,14.9166982 2.98741707,14.3815688 3.36484623,14.0693224 L5.12372918,12.6805092 C5.10165115,12.4523696 5.0879838,12.221076 5.0879838,11.9876797 C5.0879838,11.7542834 5.10165115,11.5229897 5.12372918,11.2948501 L3.37430824,9.91129363 C2.98741707,9.59694456 2.88964294,9.06076386 3.13355259,8.63392197 L5.00703103,5.3569117 C5.24463267,4.94058316 5.78291604,4.75029158 6.22763062,4.92271047 L8.29140064,5.7627269 C8.6688298,5.49253388 9.06413165,5.26018891 9.47204951,5.068846 L9.78324458,2.85158111 C9.86104335,2.35429979 10.2742179,2 10.7662425,2 L14.5142507,2 C14.9999674,2 15.4226039,2.36271047 15.4961974,2.84422177 L15.8084438,5.068846 C16.2153103,5.25913758 16.6106121,5.49148255 16.9880413,5.7627269 L19.0465546,4.92586448 C19.5280659,4.74082957 20.0369119,4.94058316 20.2745136,5.3569117 L22.147992,8.63497331 C22.3919017,9.05866119 22.2941275,9.59484189 21.9135444,9.90603696 L20.1567641,11.2948501 C20.1788421,11.5240411 20.1925095,11.7542834 20.1925095,11.9876797 C20.1925095,12.221076 20.1788421,12.4513183 20.1567641,12.6805092 Z M12.6418236,8.02414784 C10.4739715,8.02414784 8.71088319,9.80195483 8.71088319,11.9876797 C8.71088319,14.1723532 10.4739715,15.9512115 12.6418236,15.9512115 C14.8096758,15.9512115 16.5717128,14.1734045 16.5717128,11.9876797 C16.5717128,9.80195483 14.8086245,8.02414784 12.6418236,8.02414784 Z"></path>
            </g>
        </g>
    </g>
</svg>