<?xml version="1.0" encoding="UTF-8"?>
<svg width="24px" height="24px" viewBox="0 0 24 24" version="1.1" xmlns="http://www.w3.org/2000/svg" xmlns:xlink="http://www.w3.org/1999/xlink">
    <!-- Generator: Sketch 47.1 (45422) - http://www.bohemiancoding.com/sketch -->
    <title>icon-更多</title>
    <desc>Created with Sketch.</desc>
    <defs></defs>
    <g id="__wesketch_export" stroke="none" stroke-width="1" fill="none" fill-rule="evenodd">
        <g id="icon-更多" fill-rule="nonzero" fill="#FFFFFF">
            <g id="Combined-Shape">
                <path d="M14.1526329,13 L19.8474196,13 C20.4835665,13 21,13.4992588 21,14.1139144 L21,19.8861194 C21,20.5008425 20.483549,21 19.8474196,21 L14.1526329,21 C13.5165733,21 13,20.5008425 13,19.8861194 L13,14.1139144 C13,13.4992419 13.5165908,13 14.1526329,13 Z M14.1526329,3 L19.8474196,3 C20.4835665,3 21,3.51649046 21,4.15320229 L21,9.84744443 C21,10.484803 20.483549,11 19.8474196,11 L14.1526329,11 C13.5165733,11 13,10.484803 13,9.84744445 L13,4.15321976 C13,3.51649046 13.5165908,3 14.1526329,3 Z M4.16267137,13 L9.8373639,13 C10.4796562,13 11,13.4992588 11,14.1139144 L11,19.8861194 C11,20.5008425 10.4796562,21 9.8373639,21 L4.16267137,21 C3.52039674,21 3,20.5008425 3,19.8861194 L3,14.1139144 C3,13.4992419 3.52039672,13 4.16267137,13 Z M4.17570212,3.01262143 L9.85039465,3.01262143 C10.4926869,3.01262143 11.0130307,3.52911189 11.0130307,4.16582371 L11.0130307,9.86006586 C11.0130307,10.4974244 10.4926869,11.0126214 9.85039465,11.0126214 L4.17570212,11.0126214 C3.53342749,11.0126214 3.01303075,10.4974244 3.01303075,9.86006588 L3.01303075,4.16584119 C3.01303075,3.52911189 3.53342747,3.01262143 4.17570212,3.01262143 Z"></path>
            </g>
        </g>
    </g>
</svg>