<?xml version="1.0" encoding="UTF-8"?>
<svg width="12px" height="12px" viewBox="0 0 12 12" version="1.1" xmlns="http://www.w3.org/2000/svg" xmlns:xlink="http://www.w3.org/1999/xlink">
    <!-- Generator: Sketch 47.1 (45422) - http://www.bohemiancoding.com/sketch -->
    <title>icon-主题</title>
    <desc>Created with Sketch.</desc>
    <defs></defs>
    <g id="__wesketch_export" stroke="none" stroke-width="1" fill="none" fill-rule="evenodd">
        <g id="icon-主题" fill-rule="nonzero" fill="#FFFFFF">
            <g id="Shape">
                <path d="M6.20974249,0.00701716738 C2.52408155,0.00701716738 0.00703004292,2.73382403 0.00703004292,6 C0.00703004292,9.26617597 2.82373391,11.9929828 6,11.9929828 C6.68918884,11.9929828 7.13866094,11.5135365 7.13866094,10.944206 C7.13866094,10.1051845 6.4494721,10.2849785 6.4494721,9.53585408 C6.4494721,8.99649785 6.89895708,8.63690987 8.45711588,8.63690987 C9.98532618,8.66687124 11.9929828,7.79788841 11.9929828,5.34077253 C11.9929828,2.88365665 9.98532618,0.00701716738 6.20974249,0.00701716738 M2.34428755,6 C1.80491845,6 1.35544635,5.55051502 1.35544635,5.0111588 C1.35544635,4.47180258 1.80491845,4.0223176 2.34428755,4.0223176 C2.88365665,4.0223176 3.33312876,4.47180258 3.33312876,5.0111588 C3.33312876,5.55051502 2.88364378,6 2.34428755,6 M4.32196996,3.33312876 C3.78260086,3.33312876 3.33312876,2.88364378 3.33312876,2.34428755 C3.33312876,1.80493133 3.78260086,1.35544635 4.32196996,1.35544635 C4.86133906,1.35544635 5.31081116,1.80491845 5.31081116,2.34428755 C5.31081116,2.88365665 4.89130043,3.33312876 4.32196996,3.33312876 M7.67803004,3.33312876 C7.13867382,3.33312876 6.68918884,2.88364378 6.68918884,2.34428755 C6.68918884,1.80493133 7.13867382,1.35544635 7.67803004,1.35544635 C8.21738627,1.35544635 8.66687124,1.80491845 8.66687124,2.34428755 C8.66687124,2.88365665 8.21739914,3.33312876 7.67803004,3.33312876 M9.65571245,6 C9.11635622,6 8.66687124,5.55051502 8.66687124,5.0111588 C8.66687124,4.47180258 9.11635622,4.0223176 9.65571245,4.0223176 C10.1950687,4.0223176 10.6445536,4.47180258 10.6445536,5.0111588 C10.6745279,5.55051502 10.2250429,6 9.65571245,6"></path>
            </g>
        </g>
    </g>
</svg>