<?xml version="1.0" encoding="UTF-8"?>
<svg width="48px" height="48px" viewBox="0 0 48 48" version="1.1" xmlns="http://www.w3.org/2000/svg" xmlns:xlink="http://www.w3.org/1999/xlink">
    <!-- Generator: Sketch 48.1 (47250) - http://www.bohemiancoding.com/sketch -->
    <title>icon-twitter</title>
    <desc>Created with Sketch.</desc>
    <defs></defs>
    <g id="newtab-terms-of-use" stroke="none" stroke-width="1" fill="none" fill-rule="evenodd" transform="translate(-357.000000, -739.000000)">
        <g id="icon-twitter" transform="translate(357.000000, 739.000000)">
            <circle id="Oval-4" fill="#55ACEE" cx="24" cy="24" r="24"></circle>
            <g id="Popular_Twitter" transform="translate(8.000000, 11.000000)" fill="#FFFFFF">
                <path d="M32.01,4.047 C30.832,4.567 29.566,4.916 28.237,5.075 C29.593,4.268 30.634,2.989 31.125,1.469 C29.857,2.215 28.45,2.756 26.955,3.051 C25.757,1.783 24.05,0.991 22.162,0.991 C18.535,0.991 15.594,3.909 15.594,7.51 C15.594,8.017 15.652,8.518 15.764,8.995 C10.307,8.721 5.468,6.127 2.228,2.186 C1.664,3.148 1.339,4.266 1.339,5.46 C1.339,7.723 2.499,9.716 4.261,10.885 C3.185,10.852 2.172,10.557 1.287,10.069 C1.286,10.096 1.286,10.123 1.286,10.152 C1.286,13.31 3.55,15.943 6.554,16.542 C6.003,16.691 5.423,16.769 4.824,16.769 C4.401,16.769 3.989,16.73 3.588,16.653 C4.423,19.243 6.849,21.127 9.723,21.178 C7.475,22.926 4.643,23.969 1.567,23.969 C1.036,23.969 0.514,23.938 0,23.876 C2.906,25.726 6.358,26.805 10.067,26.805 C22.146,26.805 28.751,16.875 28.751,8.264 C28.751,7.982 28.745,7.7 28.733,7.421 C30.017,6.501 31.129,5.354 32.01,4.047 Z" id="Shape"></path>
            </g>
        </g>
    </g>
</svg>