<?xml version="1.0" encoding="UTF-8"?>
<svg width="36px" height="36px" viewBox="0 0 36 36" version="1.1" xmlns="http://www.w3.org/2000/svg" xmlns:xlink="http://www.w3.org/1999/xlink">
    <!-- Generator: Sketch 47.1 (45422) - http://www.bohemiancoding.com/sketch -->
    <title>icon-天气 </title>
    <desc>Created with Sketch.</desc>
    <defs></defs>
    <g id="__wesketch_export" stroke="none" stroke-width="1" fill="none" fill-rule="evenodd">
        <g id="icon-天气-" fill-rule="nonzero" fill="#FFFFFF">
            <g id="Shape">
                <path d="M31.2,19.2 L31.2,16.8 L36,16.8 L36,19.2 L31.2,19.2 Z M26.4852,7.818 L29.8788,4.4232 L31.5756,6.12 L28.182,9.5148 L26.4852,7.818 Z M18,27.6 C12.6984,27.6 8.4,23.3016 8.4,18 C8.4,12.6984 12.6984,8.4 18,8.4 C23.3016,8.4 27.6,12.6984 27.6,18 C27.6,23.3016 23.3004,27.6 18,27.6 Z M18,10.7844 C14.0148,10.7844 10.7844,14.0148 10.7844,18 C10.7844,21.9852 14.0148,25.2156 18,25.2156 C21.9852,25.2156 25.2156,21.9852 25.2156,18 C25.2156,14.0148 21.9852,10.7844 18,10.7844 L18,10.7844 Z M16.8,0 L19.2,0 L19.2,4.8 L16.8,4.8 L16.8,0 Z M4.4232,6.12 L6.12,4.4232 L9.5136,7.818 L7.8168,9.5148 L4.4232,6.12 Z M4.8,19.2 L0,19.2 L0,16.8 L4.8,16.8 L4.8,19.2 Z M9.5136,28.182 L6.12,31.5756 L4.4232,29.8788 L7.8168,26.484 L9.5136,28.182 L9.5136,28.182 Z M19.2,36 L16.8,36 L16.8,31.2 L19.2,31.2 L19.2,36 Z M31.5756,29.8788 L29.8788,31.5756 L26.4852,28.1808 L28.182,26.484 L31.5756,29.8788 Z"></path>
            </g>
        </g>
    </g>
</svg>